<svg width="28" height="23" viewBox="0 0 28 23" fill="none" xmlns="http://www.w3.org/2000/svg">
<path d="M18.59 1.42458L27.0755 9.91008C27.4968 10.332 27.7335 10.9038 27.7335 11.5001C27.7335 12.0963 27.4968 12.6682 27.0755 13.0901L18.5915 21.5771C18.1694 21.9992 17.5969 22.2363 17 22.2363C16.4031 22.2363 15.8306 21.9992 15.4085 21.5771C14.9864 21.155 14.7493 20.5825 14.7493 19.9856C14.7493 19.3886 14.9864 18.8162 15.4085 18.3941L20.0525 13.7501H2.75C2.15326 13.7501 1.58097 13.513 1.15901 13.0911C0.737053 12.6691 0.5 12.0968 0.5 11.5001C0.5 10.9033 0.737053 10.331 1.15901 9.90909C1.58097 9.48713 2.15326 9.25008 2.75 9.25008H20.0525L15.41 4.60608C14.9881 4.18398 14.7512 3.61158 14.7513 3.0148C14.7514 2.41801 14.9887 1.84572 15.4108 1.42383C15.8328 1.00193 16.4052 0.764996 17.002 0.765137C17.5988 0.765277 18.1711 1.00249 18.593 1.42458H18.59Z" fill="#E33A9F"/>
</svg>
