<svg width="46" height="46" viewBox="0 0 46 46" fill="none" xmlns="http://www.w3.org/2000/svg">
<path d="M5.5 45.5C4.125 45.5 2.94792 45.0104 1.96875 44.0312C0.989583 43.0521 0.5 41.875 0.5 40.5V15.5C0.5 14.125 0.989583 12.9479 1.96875 11.9688C2.94792 10.9896 4.125 10.5 5.5 10.5H10.5V5.5C10.5 4.125 10.9896 2.94792 11.9688 1.96875C12.9479 0.989583 14.125 0.5 15.5 0.5H30.5C31.875 0.5 33.0521 0.989583 34.0312 1.96875C35.0104 2.94792 35.5 4.125 35.5 5.5V20.5H40.5C41.875 20.5 43.0521 20.9896 44.0312 21.9688C45.0104 22.9479 45.5 24.125 45.5 25.5V40.5C45.5 41.875 45.0104 43.0521 44.0312 44.0312C43.0521 45.0104 41.875 45.5 40.5 45.5H25.5V35.5H20.5V45.5H5.5ZM5.5 40.5H10.5V35.5H5.5V40.5ZM5.5 30.5H10.5V25.5H5.5V30.5ZM5.5 20.5H10.5V15.5H5.5V20.5ZM15.5 30.5H20.5V25.5H15.5V30.5ZM15.5 20.5H20.5V15.5H15.5V20.5ZM15.5 10.5H20.5V5.5H15.5V10.5ZM25.5 30.5H30.5V25.5H25.5V30.5ZM25.5 20.5H30.5V15.5H25.5V20.5ZM25.5 10.5H30.5V5.5H25.5V10.5ZM35.5 40.5H40.5V35.5H35.5V40.5ZM35.5 30.5H40.5V25.5H35.5V30.5Z" fill="#777777"/>
</svg>
