<?xml version="1.0" encoding="UTF-8" standalone="no"?>
<!-- Created with Inkscape (http://www.inkscape.org/) -->

<svg
   version="1.1"
   id="svg1"
   width="2266.6667"
   height="506.66666"
   viewBox="0 0 2266.6667 506.66666"
   sodipodi:docname="GettyImages-1309775865.eps"
   xmlns:inkscape="http://www.inkscape.org/namespaces/inkscape"
   xmlns:sodipodi="http://sodipodi.sourceforge.net/DTD/sodipodi-0.dtd"
   xmlns="http://www.w3.org/2000/svg"
   xmlns:svg="http://www.w3.org/2000/svg">
  <defs
     id="defs1" />
  <sodipodi:namedview
     id="namedview1"
     pagecolor="#ffffff"
     bordercolor="#000000"
     borderopacity="0.25"
     inkscape:showpageshadow="2"
     inkscape:pageopacity="0.0"
     inkscape:pagecheckerboard="0"
     inkscape:deskcolor="#d1d1d1">
    <inkscape:page
       x="0"
       y="0"
       inkscape:label="1"
       id="page1"
       width="2266.6667"
       height="506.66666"
       margin="0"
       bleed="0" />
  </sodipodi:namedview>
  <g
     id="g1"
     inkscape:groupmode="layer"
     inkscape:label="1">
    <g
       id="group-R5">
      <path
         id="path2"
         d="M 17000,0 H -0.00390625 V 3800 H 17000 V 0"
         style="fill:#ffffff;fill-opacity:1;fill-rule:nonzero;stroke:none"
         transform="matrix(0.13333333,0,0,-0.13333333,0,506.66667)" />
      <path
         id="path3"
         d="m 1971.16,1900 c 0,-454.71 -368.62,-823.32 -823.32,-823.32 -454.707,0 -823.32,368.61 -823.32,823.32 0,454.71 368.613,823.32 823.32,823.32 454.7,0 823.32,-368.61 823.32,-823.32"
         style="fill:#009900;fill-opacity:1;fill-rule:nonzero;stroke:none"
         transform="matrix(0.13333333,0,0,-0.13333333,0,506.66667)" />
      <path
         id="path4"
         d="m 1652.78,2161.36 -90.97,90.96 -522.72,-522.71 -305.227,305.23 -90.961,-90.96 396.198,-396.2 90.96,90.96 522.72,522.72"
         style="fill:#ffffff;fill-opacity:1;fill-rule:nonzero;stroke:none"
         transform="matrix(0.13333333,0,0,-0.13333333,0,506.66667)" />
      <path
         id="path5"
         d="m 14574.9,1900 c 0,-454.71 -368.7,-823.32 -823.4,-823.32 -454.7,0 -823.3,368.61 -823.3,823.32 0,454.71 368.6,823.32 823.3,823.32 454.7,0 823.4,-368.61 823.4,-823.32"
         style="fill:#ffffff;fill-opacity:1;fill-rule:nonzero;stroke:none"
         transform="matrix(0.13333333,0,0,-0.13333333,0,506.66667)" />
      <path
         id="path6"
         d="m 13751.5,2723.32 c -454.7,0 -823.3,-368.61 -823.3,-823.32 0,-454.71 368.6,-823.32 823.3,-823.32 454.7,0 823.4,368.61 823.4,823.32 0,454.71 -368.7,823.32 -823.4,823.32 z m 0,-113.54 c 391.4,0 709.8,-318.41 709.8,-709.78 0,-391.37 -318.4,-709.78 -709.8,-709.78 -391.3,0 -709.7,318.41 -709.7,709.78 0,391.37 318.4,709.78 709.7,709.78 v 0"
         style="fill:#009900;fill-opacity:1;fill-rule:nonzero;stroke:none"
         transform="matrix(0.13333333,0,0,-0.13333333,0,506.66667)" />
      <path
         id="path7"
         d="m 14256.5,2161.36 -91,90.96 -522.7,-522.71 -305.2,305.23 -91,-90.96 396.2,-396.2 91,90.96 522.7,522.72"
         style="fill:#009900;fill-opacity:1;fill-rule:nonzero;stroke:none"
         transform="matrix(0.13333333,0,0,-0.13333333,0,506.66667)" />
      <path
         id="path8"
         d="m 4071.77,1900 c 0,-454.71 -368.61,-823.32 -823.31,-823.32 -454.71,0 -823.32,368.61 -823.32,823.32 0,454.71 368.61,823.32 823.32,823.32 454.7,0 823.31,-368.61 823.31,-823.32"
         style="fill:#e81a23;fill-opacity:1;fill-rule:nonzero;stroke:none"
         transform="matrix(0.13333333,0,0,-0.13333333,0,506.66667)" />
      <path
         id="path9"
         d="m 3600.77,2161.35 -90.97,90.96 -261.34,-261.35 -261.35,261.35 -90.96,-90.96 261.34,-261.35 -261.34,-261.35 90.96,-90.96 261.35,261.34 261.34,-261.34 90.97,90.96 -261.35,261.35 261.35,261.35"
         style="fill:#ffffff;fill-opacity:1;fill-rule:nonzero;stroke:none"
         transform="matrix(0.13333333,0,0,-0.13333333,0,506.66667)" />
      <path
         id="path10"
         d="m 16675.5,1900 c 0,-454.71 -368.6,-823.32 -823.3,-823.32 -454.7,0 -823.4,368.61 -823.4,823.32 0,454.71 368.7,823.32 823.4,823.32 454.7,0 823.3,-368.61 823.3,-823.32"
         style="fill:#ffffff;fill-opacity:1;fill-rule:nonzero;stroke:none"
         transform="matrix(0.13333333,0,0,-0.13333333,0,506.66667)" />
      <path
         id="path11"
         d="m 15852.2,2723.32 c -454.7,0 -823.4,-368.61 -823.4,-823.32 0,-454.71 368.7,-823.32 823.4,-823.32 454.7,0 823.3,368.61 823.3,823.32 0,454.71 -368.6,823.32 -823.3,823.32 z m 0,-113.54 c 391.3,0 709.7,-318.41 709.7,-709.78 0,-391.37 -318.4,-709.78 -709.7,-709.78 -391.4,0 -709.8,318.41 -709.8,709.78 0,391.37 318.4,709.78 709.8,709.78 v 0"
         style="fill:#e81a23;fill-opacity:1;fill-rule:nonzero;stroke:none"
         transform="matrix(0.13333333,0,0,-0.13333333,0,506.66667)" />
      <path
         id="path12"
         d="m 16204.5,2161.35 -91,90.96 -261.3,-261.35 -261.4,261.35 -90.9,-90.96 261.3,-261.35 -261.3,-261.35 90.9,-90.96 261.4,261.34 261.3,-261.34 91,90.96 -261.4,261.35 261.4,261.35"
         style="fill:#e81a23;fill-opacity:1;fill-rule:nonzero;stroke:none"
         transform="matrix(0.13333333,0,0,-0.13333333,0,506.66667)" />
      <path
         id="path13"
         d="m 5723.07,1076.68 h -748 c -248.15,0 -449.31,201.17 -449.31,449.32 v 748 c 0,248.15 201.16,449.32 449.31,449.32 h 748 c 248.15,0 449.32,-201.17 449.32,-449.32 v -748 c 0,-248.15 -201.17,-449.32 -449.32,-449.32"
         style="fill:#ffffff;fill-opacity:1;fill-rule:nonzero;stroke:none"
         transform="matrix(0.13333333,0,0,-0.13333333,0,506.66667)" />
      <path
         id="path14"
         d="m 5723.07,2723.32 h -748 c -248.15,0 -449.31,-201.17 -449.31,-449.32 v -748 c 0,-248.15 201.16,-449.32 449.31,-449.32 h 748 c 248.15,0 449.32,201.17 449.32,449.32 v 748 c 0,248.15 -201.17,449.32 -449.32,449.32 z m 0,-113.54 c 185.15,0 335.78,-150.63 335.78,-335.78 v -748 c 0,-185.15 -150.63,-335.78 -335.78,-335.78 h -748 c -185.15,0 -335.77,150.63 -335.77,335.78 v 748 c 0,185.15 150.62,335.78 335.77,335.78 h 748 v 0"
         style="fill:#009900;fill-opacity:1;fill-rule:nonzero;stroke:none"
         transform="matrix(0.13333333,0,0,-0.13333333,0,506.66667)" />
      <path
         id="path15"
         d="m 5854.01,2161.36 -90.96,90.96 -522.72,-522.71 -305.23,305.23 -90.96,-90.96 396.2,-396.2 90.96,90.96 c -0.01,0 522.71,522.72 522.71,522.72"
         style="fill:#009900;fill-opacity:1;fill-rule:nonzero;stroke:none"
         transform="matrix(0.13333333,0,0,-0.13333333,0,506.66667)" />
      <path
         id="path16"
         d="m 7823.69,1076.68 h -748 c -248.15,0 -449.31,201.17 -449.31,449.32 v 748 c 0,248.15 201.16,449.32 449.31,449.32 h 748 c 248.15,0 449.32,-201.17 449.32,-449.32 v -748 c 0,-248.15 -201.17,-449.32 -449.32,-449.32"
         style="fill:#ffffff;fill-opacity:1;fill-rule:nonzero;stroke:none"
         transform="matrix(0.13333333,0,0,-0.13333333,0,506.66667)" />
      <path
         id="path17"
         d="m 7823.69,2723.32 h -748 c -248.15,0 -449.31,-201.17 -449.31,-449.32 v -748 c 0,-248.15 201.16,-449.32 449.31,-449.32 h 748 c 248.15,0 449.32,201.17 449.32,449.32 v 748 c 0,248.15 -201.17,449.32 -449.32,449.32 z m 0,-113.54 c 185.15,0 335.78,-150.63 335.78,-335.78 v -748 c 0,-185.15 -150.63,-335.78 -335.78,-335.78 h -748 c -185.14,0 -335.78,150.63 -335.78,335.78 v 748 c 0,185.15 150.64,335.78 335.78,335.78 h 748 v 0"
         style="fill:#e81a23;fill-opacity:1;fill-rule:nonzero;stroke:none"
         transform="matrix(0.13333333,0,0,-0.13333333,0,506.66667)" />
      <path
         id="path18"
         d="m 7802,2161.35 -90.96,90.96 -261.34,-261.35 -261.36,261.35 -90.96,-90.96 261.35,-261.35 -261.35,-261.35 90.96,-90.96 261.36,261.34 261.34,-261.34 90.96,90.96 L 7540.65,1900 7802,2161.35"
         style="fill:#e81a23;fill-opacity:1;fill-rule:nonzero;stroke:none"
         transform="matrix(0.13333333,0,0,-0.13333333,0,506.66667)" />
      <path
         id="path19"
         d="m 9924.3,1076.68 h -747.99 c -248.15,0 -449.32,201.17 -449.32,449.32 v 748 c 0,248.15 201.17,449.32 449.32,449.32 h 747.99 c 248.2,0 449.3,-201.17 449.3,-449.32 v -748 c 0,-248.15 -201.1,-449.32 -449.3,-449.32"
         style="fill:#009900;fill-opacity:1;fill-rule:nonzero;stroke:none"
         transform="matrix(0.13333333,0,0,-0.13333333,0,506.66667)" />
      <path
         id="path20"
         d="m 10055.2,2161.36 -90.91,90.96 -522.72,-522.71 -305.23,305.23 -90.97,-90.96 396.2,-396.2 90.96,90.96 522.67,522.72"
         style="fill:#ffffff;fill-opacity:1;fill-rule:nonzero;stroke:none"
         transform="matrix(0.13333333,0,0,-0.13333333,0,506.66667)" />
      <path
         id="path21"
         d="m 12024.9,1076.68 h -748 c -248.1,0 -449.3,201.17 -449.3,449.32 v 748 c 0,248.15 201.2,449.32 449.3,449.32 h 748 c 248.2,0 449.3,-201.17 449.3,-449.32 v -748 c 0,-248.15 -201.1,-449.32 -449.3,-449.32"
         style="fill:#e81a23;fill-opacity:1;fill-rule:nonzero;stroke:none"
         transform="matrix(0.13333333,0,0,-0.13333333,0,506.66667)" />
      <path
         id="path22"
         d="m 12003.2,2161.35 -90.9,90.96 -261.4,-261.35 -261.3,261.35 -91,-90.96 261.4,-261.35 -261.4,-261.35 91,-90.96 261.3,261.34 261.4,-261.34 90.9,90.96 -261.3,261.35 261.3,261.35"
         style="fill:#ffffff;fill-opacity:1;fill-rule:nonzero;stroke:none"
         transform="matrix(0.13333333,0,0,-0.13333333,0,506.66667)" />
    </g>
  </g>
</svg>
