<svg width="50" height="53" viewBox="0 0 50 53" fill="none" xmlns="http://www.w3.org/2000/svg">
<path d="M7 27.25L0.75 21C0.25 20.5 0 19.9167 0 19.25C0 18.5833 0.25 18 0.75 17.5L7 11.25C7.5 10.75 8.08333 10.5 8.75 10.5C9.41667 10.5 10 10.75 10.5 11.25L16.75 17.5C17.25 18 17.5 18.5833 17.5 19.25C17.5 19.9167 17.25 20.5 16.75 21L10.5 27.25C10 27.75 9.41667 28 8.75 28C8.08333 28 7.5 27.75 7 27.25ZM20 53C19.2917 53 18.6979 52.7604 18.2188 52.2812C17.7396 51.8021 17.5 51.2083 17.5 50.5V40.5C15.4167 40.3333 13.3542 40.1042 11.3125 39.8125C9.27083 39.5208 7.22917 39.1458 5.1875 38.6875C4.47917 38.5208 3.90625 38.125 3.46875 37.5C3.03125 36.875 2.91667 36.2083 3.125 35.5C3.33333 34.7917 3.76042 34.2708 4.40625 33.9375C5.05208 33.6042 5.72917 33.5208 6.4375 33.6875C9.47917 34.3958 12.5521 34.875 15.6563 35.125C18.7604 35.375 21.875 35.5 25 35.5C28.125 35.5 31.2396 35.375 34.3438 35.125C37.4479 34.875 40.5208 34.3958 43.5625 33.6875C44.2708 33.5208 44.9479 33.6042 45.5938 33.9375C46.2396 34.2708 46.6667 34.7917 46.875 35.5C47.0833 36.2083 46.9688 36.875 46.5313 37.5C46.0938 38.125 45.5208 38.5208 44.8125 38.6875C42.7708 39.1458 40.7292 39.5208 38.6875 39.8125C36.6458 40.1042 34.5833 40.3333 32.5 40.5V50.5C32.5 51.2083 32.2604 51.8021 31.7813 52.2812C31.3021 52.7604 30.7083 53 30 53H20ZM25 15.5C22.9167 15.5 21.1458 14.7708 19.6875 13.3125C18.2292 11.8542 17.5 10.0833 17.5 8C17.5 5.91667 18.2292 4.14583 19.6875 2.6875C21.1458 1.22917 22.9167 0.5 25 0.5C27.0833 0.5 28.8542 1.22917 30.3125 2.6875C31.7708 4.14583 32.5 5.91667 32.5 8C32.5 10.0833 31.7708 11.8542 30.3125 13.3125C28.8542 14.7708 27.0833 15.5 25 15.5ZM25 33C23.625 33 22.4479 32.5104 21.4688 31.5312C20.4896 30.5521 20 29.375 20 28C20 26.625 20.4896 25.4479 21.4688 24.4688C22.4479 23.4896 23.625 23 25 23C26.375 23 27.5521 23.4896 28.5312 24.4688C29.5104 25.4479 30 26.625 30 28C30 29.375 29.5104 30.5521 28.5312 31.5312C27.5521 32.5104 26.375 33 25 33ZM36.9375 26.75L34.0625 21.75C33.8542 21.375 33.75 20.9583 33.75 20.5C33.75 20.0417 33.8542 19.625 34.0625 19.25L36.9375 14.25C37.1458 13.8333 37.4375 13.5208 37.8125 13.3125C38.1875 13.1042 38.6042 13 39.0625 13H44.6875C45.1458 13 45.5625 13.1042 45.9375 13.3125C46.3125 13.5208 46.6042 13.8333 46.8125 14.25L49.6875 19.25C49.8958 19.625 50 20.0417 50 20.5C50 20.9583 49.8958 21.375 49.6875 21.75L46.8125 26.75C46.6042 27.1667 46.3125 27.4792 45.9375 27.6875C45.5625 27.8958 45.1458 28 44.6875 28H39.0625C38.6042 28 38.1875 27.8958 37.8125 27.6875C37.4375 27.4792 37.1458 27.1667 36.9375 26.75Z" fill="#FA98D3"/>
</svg>
