<svg width="61" height="60" viewBox="0 0 61 60" fill="none" xmlns="http://www.w3.org/2000/svg">
<path d="M30.3333 35C31.0416 35 31.6354 34.7604 32.1146 34.2812C32.5937 33.8021 32.8333 33.2083 32.8333 32.5V20C32.8333 19.2917 32.5937 18.6979 32.1146 18.2188C31.6354 17.7396 31.0416 17.5 30.3333 17.5C29.625 17.5 29.0312 17.7396 28.5521 18.2188C28.0729 18.6979 27.8333 19.2917 27.8333 20V32.5C27.8333 33.2083 28.0729 33.8021 28.5521 34.2812C29.0312 34.7604 29.625 35 30.3333 35ZM37.8333 31.25C38.5416 31.25 39.1354 31.0104 39.6146 30.5312C40.0937 30.0521 40.3333 29.4583 40.3333 28.75V22.5C40.3333 21.7917 40.0937 21.1979 39.6146 20.7188C39.1354 20.2396 38.5416 20 37.8333 20C37.125 20 36.5312 20.2396 36.0521 20.7188C35.5729 21.1979 35.3333 21.7917 35.3333 22.5V28.75C35.3333 29.4583 35.5729 30.0521 36.0521 30.5312C36.5312 31.0104 37.125 31.25 37.8333 31.25ZM22.8333 30C23.5416 30 24.1354 29.7604 24.6146 29.2812C25.0937 28.8021 25.3333 28.2083 25.3333 27.5V22.5C25.3333 21.7917 25.0937 21.1979 24.6146 20.7188C24.1354 20.2396 23.5416 20 22.8333 20C22.125 20 21.5312 20.2396 21.0521 20.7188C20.5729 21.1979 20.3333 21.7917 20.3333 22.5V27.5C20.3333 28.2083 20.5729 28.8021 21.0521 29.2812C21.5312 29.7604 22.125 30 22.8333 30ZM17.8333 55C17.125 55 16.5312 54.7604 16.0521 54.2812C15.5729 53.8021 15.3333 53.2083 15.3333 52.5V44.25C12.9583 42.0833 11.1146 39.5521 9.80206 36.6562C8.48956 33.7604 7.83331 30.7083 7.83331 27.5C7.83331 21.25 10.0208 15.9375 14.3958 11.5625C18.7708 7.1875 24.0833 5 30.3333 5C35.5416 5 40.1562 6.53125 44.1771 9.59375C48.1979 12.6562 50.8125 16.6458 52.0208 21.5625L55.2708 34.375C55.4791 35.1667 55.3333 35.8854 54.8333 36.5312C54.3333 37.1771 53.6666 37.5 52.8333 37.5H47.8333V45C47.8333 46.375 47.3437 47.5521 46.3646 48.5312C45.3854 49.5104 44.2083 50 42.8333 50H37.8333V52.5C37.8333 53.2083 37.5937 53.8021 37.1146 54.2812C36.6354 54.7604 36.0416 55 35.3333 55H17.8333Z" fill="#FA98D3"/>
</svg>
