<svg width="54" height="46" viewBox="0 0 54 46" fill="none" xmlns="http://www.w3.org/2000/svg">
<path d="M5.66672 45.5C4.29172 45.5 3.11463 45.0104 2.13547 44.0312C1.1563 43.0521 0.666718 41.875 0.666718 40.5V13C0.666718 12.2917 0.906301 11.6979 1.38547 11.2188C1.86463 10.7396 2.45838 10.5 3.16672 10.5C3.87505 10.5 4.4688 10.7396 4.94797 11.2188C5.42713 11.6979 5.66672 12.2917 5.66672 13V40.5H40.6667C41.375 40.5 41.9688 40.7396 42.448 41.2188C42.9271 41.6979 43.1667 42.2917 43.1667 43C43.1667 43.7083 42.9271 44.3021 42.448 44.7812C41.9688 45.2604 41.375 45.5 40.6667 45.5H5.66672ZM15.6667 35.5C14.2917 35.5 13.1146 35.0104 12.1355 34.0312C11.1563 33.0521 10.6667 31.875 10.6667 30.5V3C10.6667 2.29167 10.9063 1.69792 11.3855 1.21875C11.8646 0.739583 12.4584 0.5 13.1667 0.5H50.6667C51.375 0.5 51.9688 0.739583 52.448 1.21875C52.9271 1.69792 53.1667 2.29167 53.1667 3V30.5C53.1667 31.875 52.6771 33.0521 51.698 34.0312C50.7188 35.0104 49.5417 35.5 48.1667 35.5H15.6667ZM23.1667 23H28.1667C28.8751 23 29.4688 22.7604 29.948 22.2812C30.4271 21.8021 30.6667 21.2083 30.6667 20.5V13C30.6667 12.2917 30.4271 11.6979 29.948 11.2188C29.4688 10.7396 28.8751 10.5 28.1667 10.5H23.1667C22.4584 10.5 21.8646 10.7396 21.3855 11.2188C20.9063 11.6979 20.6667 12.2917 20.6667 13V20.5C20.6667 21.2083 20.9063 21.8021 21.3855 22.2812C21.8646 22.7604 22.4584 23 23.1667 23ZM35.6667 23H40.6667C41.375 23 41.9688 22.7604 42.448 22.2812C42.9271 21.8021 43.1667 21.2083 43.1667 20.5C43.1667 19.7917 42.9271 19.1979 42.448 18.7188C41.9688 18.2396 41.375 18 40.6667 18H35.6667C34.9584 18 34.3646 18.2396 33.8855 18.7188C33.4063 19.1979 33.1667 19.7917 33.1667 20.5C33.1667 21.2083 33.4063 21.8021 33.8855 22.2812C34.3646 22.7604 34.9584 23 35.6667 23ZM35.6667 15.5H40.6667C41.375 15.5 41.9688 15.2604 42.448 14.7812C42.9271 14.3021 43.1667 13.7083 43.1667 13C43.1667 12.2917 42.9271 11.6979 42.448 11.2188C41.9688 10.7396 41.375 10.5 40.6667 10.5H35.6667C34.9584 10.5 34.3646 10.7396 33.8855 11.2188C33.4063 11.6979 33.1667 12.2917 33.1667 13C33.1667 13.7083 33.4063 14.3021 33.8855 14.7812C34.3646 15.2604 34.9584 15.5 35.6667 15.5Z" fill="#FA98D3"/>
</svg>
