<svg width="51" height="50" viewBox="0 0 51 50" fill="none" xmlns="http://www.w3.org/2000/svg">
<path d="M8 50C5.91667 50 4.14583 49.2708 2.6875 47.8125C1.22917 46.3542 0.5 44.5833 0.5 42.5V37.5C0.5 36.7917 0.739583 36.1979 1.21875 35.7188C1.69792 35.2396 2.29167 35 3 35H8V5C8 3.625 8.48958 2.44792 9.46875 1.46875C10.4479 0.489583 11.625 0 13 0H40.5C41.875 0 43.0521 0.489583 44.0312 1.46875C45.0104 2.44792 45.5 3.625 45.5 5V20C45.5 20.7083 45.2604 21.3021 44.7812 21.7812C44.3021 22.2604 43.7083 22.5 43 22.5C42.2917 22.5 41.6979 22.2604 41.2188 21.7812C40.7396 21.3021 40.5 20.7083 40.5 20V5H13V35H22.9375C23.8958 35 24.5521 35.4271 24.9062 36.2812C25.2604 37.1354 25.1042 37.8958 24.4375 38.5625C23.9792 39.0208 23.625 39.5521 23.375 40.1562C23.125 40.7604 23 41.3958 23 42.0625V47.5C23 48.2083 22.7604 48.8021 22.2812 49.2812C21.8021 49.7604 21.2083 50 20.5 50H8ZM28 47.5V43.375C28 43.0417 28.0625 42.7083 28.1875 42.375C28.3125 42.0417 28.5 41.7708 28.75 41.5625L41.8125 28.5625C42.1875 28.1875 42.6042 27.9167 43.0625 27.75C43.5208 27.5833 43.9792 27.5 44.4375 27.5C44.9375 27.5 45.4167 27.5938 45.875 27.7812C46.3333 27.9688 46.75 28.25 47.125 28.625L49.4375 30.9375C49.7708 31.3125 50.0312 31.7292 50.2188 32.1875C50.4062 32.6458 50.5 33.1042 50.5 33.5625C50.5 34.0208 50.4167 34.4896 50.25 34.9688C50.0833 35.4479 49.8125 35.875 49.4375 36.25L36.4375 49.25C36.2292 49.4583 35.9583 49.6354 35.625 49.7812C35.2917 49.9271 34.9583 50 34.625 50H30.5C29.7917 50 29.1979 49.7604 28.7188 49.2812C28.2396 48.8021 28 48.2083 28 47.5ZM44.4375 36L46.75 33.5625L44.4375 31.25L42.0625 33.625L44.4375 36ZM18 20H35.5C36.2083 20 36.8021 20.2396 37.2812 20.7188C37.7604 21.1979 38 21.7917 38 22.5C38 23.2083 37.7604 23.8021 37.2812 24.2812C36.8021 24.7604 36.2083 25 35.5 25H18C17.2917 25 16.6979 24.7604 16.2188 24.2812C15.7396 23.8021 15.5 23.2083 15.5 22.5C15.5 21.7917 15.7396 21.1979 16.2188 20.7188C16.6979 20.2396 17.2917 20 18 20ZM18 12.5H35.5C36.2083 12.5 36.8021 12.7396 37.2812 13.2188C37.7604 13.6979 38 14.2917 38 15C38 15.7083 37.7604 16.3021 37.2812 16.7812C36.8021 17.2604 36.2083 17.5 35.5 17.5H18C17.2917 17.5 16.6979 17.2604 16.2188 16.7812C15.7396 16.3021 15.5 15.7083 15.5 15C15.5 14.2917 15.7396 13.6979 16.2188 13.2188C16.6979 12.7396 17.2917 12.5 18 12.5Z" fill="#FA98D3"/>
</svg>
