<svg width="46" height="46" viewBox="0 0 46 46" fill="none" xmlns="http://www.w3.org/2000/svg">
<path d="M23 33C21.625 33 20.4479 32.5104 19.4688 31.5312C18.4896 30.5521 18 29.375 18 28C18 26.625 18.4896 25.4479 19.4688 24.4688C20.4479 23.4896 21.625 23 23 23C24.375 23 25.5521 23.4896 26.5312 24.4688C27.5104 25.4479 28 26.625 28 28C28 29.375 27.5104 30.5521 26.5312 31.5312C25.5521 32.5104 24.375 33 23 33ZM11.4375 10.5H34.5625L37.75 4.125C38.1667 3.29167 38.1354 2.47917 37.6562 1.6875C37.1771 0.895833 36.4583 0.5 35.5 0.5H10.5C9.54167 0.5 8.82292 0.895833 8.34375 1.6875C7.86458 2.47917 7.83333 3.29167 8.25 4.125L11.4375 10.5ZM14 45.5H32C35.75 45.5 38.9375 44.1979 41.5625 41.5938C44.1875 38.9896 45.5 35.7917 45.5 32C45.5 30.4167 45.2292 28.875 44.6875 27.375C44.1458 25.875 43.375 24.5208 42.375 23.3125L35.875 15.5H10.125L3.625 23.3125C2.625 24.5208 1.85417 25.875 1.3125 27.375C0.770833 28.875 0.5 30.4167 0.5 32C0.5 35.7917 1.80208 38.9896 4.40625 41.5938C7.01042 44.1979 10.2083 45.5 14 45.5Z" fill="#FA98D3"/>
</svg>
