<svg width="189" height="85" viewBox="0 0 189 85" fill="none" xmlns="http://www.w3.org/2000/svg">
<g id="&#236;&#157;&#184;&#236;&#167;&#128;&#237;&#142;&#156; &#235;&#161;&#156;&#234;&#179;&#160; 1" clip-path="url(#clip0_243_51)">
<g id="Group">
<g id="Clip path group">
<mask id="mask0_243_51" style="mask-type:luminance" maskUnits="userSpaceOnUse" x="0" y="-119" width="212" height="302">
<g id="SVGID_2_">
<path id="Vector" d="M211.879 -118.175H0V182.5H211.879V-118.175Z" fill="white"/>
</g>
</mask>
<g mask="url(#mask0_243_51)">
<path id="Vector_2" d="M28.9871 12.6393H23.7976V7.43573C23.7976 6.68573 23.189 6.07501 22.4415 6.07501H13.173C12.4256 6.07501 11.8169 6.68573 11.8169 7.43573V12.6393H6.631C5.88355 12.6393 5.2749 13.2464 5.2749 14V23.3C5.2749 24.05 5.87999 24.6607 6.631 24.6607H11.8169V29.8643C11.8169 30.6143 12.422 31.225 13.173 31.225H22.4415C23.189 31.225 23.7976 30.6143 23.7976 29.8643V24.6607H28.9871C29.7346 24.6607 30.3432 24.05 30.3432 23.3V14C30.3396 13.25 29.7346 12.6393 28.9871 12.6393Z" fill="#EC008C"/>
</g>
</g>
<g id="Clip path group_2">
<mask id="mask1_243_51" style="mask-type:luminance" maskUnits="userSpaceOnUse" x="0" y="-119" width="212" height="302">
<g id="SVGID_2__2">
<path id="Vector_3" d="M211.879 -118.175H0V182.5H211.879V-118.175Z" fill="white"/>
</g>
</mask>
<g mask="url(#mask1_243_51)">
<path id="Vector_4" d="M17.64 15.4322C18.028 14.45 18.6829 13.3 20.548 13.3C22.2565 13.3 23.7478 14.3715 23.7478 16.6072C23.7478 18.9608 20.0782 23.4572 17.608 25.9108C15.1378 23.6179 11.5785 19.2536 11.5785 16.3286C11.5785 14.6536 12.867 13.3 14.7178 13.3C16.5366 13.3 17.22 14.4179 17.608 15.3429L17.64 15.4322Z" fill="#FFD600"/>
</g>
</g>
<g id="Clip path group_3">
<mask id="mask2_243_51" style="mask-type:luminance" maskUnits="userSpaceOnUse" x="0" y="-119" width="212" height="302">
<g id="SVGID_2__3">
<path id="Vector_5" d="M211.879 -118.175H0V182.5H211.879V-118.175Z" fill="white"/>
</g>
</mask>
<g mask="url(#mask2_243_51)">
<path id="Vector_6" d="M51.9768 47.6536C52.2758 48.4679 52.4822 49.3893 52.5997 50.425C52.7136 51.4572 52.7064 52.5215 52.5747 53.6179C52.411 54.7465 52.112 55.8643 51.6814 56.975C51.2507 58.0857 50.6385 59.1286 49.8447 60.1C49.019 61.1036 47.9832 62.0107 46.7446 62.825C45.5024 63.6393 44.0217 64.2822 42.3025 64.75C41.5408 64.9715 40.6795 65.1357 39.722 65.2429C38.7646 65.35 37.7715 65.3929 36.7464 65.3607C35.7178 65.3322 34.6785 65.2143 33.6178 65.0107C32.5571 64.8072 31.532 64.5179 30.5425 64.1429C28.8234 63.4857 27.3178 62.5 26.0258 61.1857C24.7373 59.8715 23.8759 58.1322 23.4453 55.9715C23.3136 55.2536 23.2317 54.3607 23.1997 53.2965C23.1641 52.2322 23.2637 51.1036 23.4951 49.9143C23.6944 48.7572 24.0575 47.5643 24.5878 46.3465C25.1181 45.125 25.862 43.9822 26.8195 42.9179C27.7805 41.8857 28.9978 40.9857 30.4678 40.2179C31.9414 39.45 33.7317 38.9107 35.8495 38.5965C37.0419 38.4107 38.4229 38.4036 39.9925 38.575C41.5622 38.7465 43.1247 39.1786 44.6802 39.8679C46.2 40.5572 47.6237 41.5286 48.9478 42.7786C50.2719 44.0215 51.2827 45.65 51.9768 47.6536ZM49.9444 67.3786C50.0761 67.5072 50.158 67.7607 50.1936 68.1536C50.222 68.5465 50.222 68.9607 50.1936 69.4C50.158 69.8715 50.101 70.3072 50.0192 70.7143C49.9373 71.1215 49.8447 71.4036 49.7451 71.5607V71.6572C49.7451 71.6893 49.7024 71.7357 49.6205 71.7965C49.5386 71.8607 49.35 71.925 49.051 71.9822C48.752 72.0465 48.2822 72.1 47.6344 72.1465C46.9902 72.1929 46.0861 72.2143 44.9293 72.2143H44.011C43.6942 72.2143 43.3739 72.2 43.0429 72.1679C43.0429 72.325 43.0358 72.6143 43.0215 73.0357C43.0037 73.4572 42.9788 73.9215 42.9468 74.4215C42.9112 74.9536 42.8649 75.4857 42.7973 76.0179C42.7332 76.55 42.6514 77.0036 42.5517 77.3822C42.5517 77.475 42.5339 77.5393 42.5019 77.5679C42.4022 77.7536 42.0071 77.8179 41.313 77.7536C41.2454 77.7536 41.007 77.775 40.5941 77.825C40.1812 77.8715 39.7256 77.8929 39.2273 77.8929C37.9708 77.8929 37.1771 77.7072 36.8461 77.3322C36.7144 77.175 36.6468 76.9572 36.6468 76.675V72.5893C36.4475 72.5893 36.0097 72.575 35.3298 72.5429C34.6536 72.5107 33.9168 72.4643 33.123 72.4C32.3293 72.3715 31.5676 72.3286 30.8415 72.2822C30.1119 72.2357 29.5851 72.1965 29.2541 72.1643H29.1508V72.0715C29.1508 72.0393 29.1224 71.8465 29.0761 71.4857C29.0263 71.125 29.0014 70.7107 29.0014 70.2393C29.0014 69.7715 29.0441 69.3 29.1259 68.8322C29.2078 68.3607 29.368 68.0036 29.5958 67.75C29.7951 67.5 30.0941 67.4072 30.4892 67.4679C30.5888 67.4679 31.0159 67.4607 31.7776 67.4429C32.5393 67.4286 33.4825 67.4036 34.6073 67.3715C35.732 67.3715 36.9814 67.3643 38.3553 67.35C39.7292 67.3322 41.0924 67.2965 42.4485 67.2322C43.769 67.2 45.0112 67.1607 46.168 67.1143C47.3283 67.0679 48.268 67.0143 48.9976 66.95C49.0653 66.95 49.1969 66.9643 49.3963 66.9965C49.5956 67.0357 49.7771 67.1607 49.9444 67.3786ZM41.0105 59.2536C42.0036 58.8786 42.8792 58.3679 43.6373 57.7286C44.399 57.0857 45.0254 56.3607 45.5237 55.5465C45.9864 54.7322 46.2925 53.8857 46.442 53.0107C46.588 52.1357 46.5488 51.2715 46.3175 50.4286C46.0185 49.3036 45.5558 48.3465 44.9293 47.5643C44.2993 46.7822 43.5732 46.1393 42.7439 45.6393C41.9181 45.1679 41.039 44.8393 40.1136 44.6536C39.1881 44.4643 38.2592 44.4036 37.3337 44.4643C35.9456 44.5572 34.7354 44.8572 33.7103 45.3572C32.6817 45.8572 31.8559 46.5143 31.2295 47.3286C30.5675 48.1429 30.0905 49.0965 29.7915 50.1929C29.4925 51.2893 29.3929 52.4786 29.4925 53.7607C29.5922 54.7929 29.998 55.7572 30.7098 56.65C31.4181 57.5429 32.3222 58.2536 33.4149 58.7857C34.5076 59.3179 35.7214 59.65 37.0632 59.7715C38.4051 59.8965 39.7185 59.7215 41.0105 59.2536Z" fill="#EC008C"/>
</g>
</g>
<g id="Clip path group_4">
<mask id="mask3_243_51" style="mask-type:luminance" maskUnits="userSpaceOnUse" x="0" y="-119" width="212" height="302">
<g id="SVGID_2__4">
<path id="Vector_7" d="M211.879 -118.175H0V182.5H211.879V-118.175Z" fill="white"/>
</g>
</mask>
<g mask="url(#mask3_243_51)">
<path id="Vector_8" d="M70.4568 58.0357C70.4568 58.0643 70.4924 58.2464 70.5671 58.5786C70.6419 58.9107 70.7024 59.3071 70.7487 59.7678C70.7985 60.2607 70.8021 60.7857 70.7665 61.35C70.7309 61.9107 70.6027 62.4536 70.3856 62.9714L70.35 63.0143H70.2753C70.2504 63.0143 69.8873 62.95 69.1861 62.8214C68.4849 62.6893 67.6129 62.4964 66.5736 62.2357C65.5343 62.0036 64.4344 61.7036 63.2705 61.3286C62.1102 60.9536 61.0566 60.5071 60.1134 59.9857C60.1134 60.2178 60.1205 60.6143 60.1312 61.1786C60.1455 61.7393 60.1277 62.3393 60.0778 62.975C60.0316 63.6107 59.9461 64.225 59.8251 64.8143C59.7041 65.4071 59.5226 65.8464 59.2805 66.1357C59.0634 66.3393 58.8819 66.4357 58.736 66.4357C58.6648 66.4357 58.5544 66.4071 58.4085 66.35L54.6 65.4821V65.4393C54.6 65.4107 54.5751 65.2321 54.5253 64.9C54.479 64.5678 54.4541 64.0107 54.4541 63.2321C54.4541 62.4821 54.5146 61.4714 54.6356 60.2036C54.7566 58.9357 54.9738 57.3464 55.287 55.4428C55.3368 55.0964 55.4329 54.5321 55.5788 53.7536C55.7248 52.975 55.8814 52.1071 56.0522 51.1571C56.2195 50.2071 56.4153 49.2178 56.6324 48.1928C56.8495 47.1678 57.0702 46.2393 57.2873 45.4C57.4795 44.5643 57.6788 43.8786 57.8853 43.3428C58.0917 42.8107 58.2768 42.5428 58.4477 42.5428H58.5224C58.5936 42.5428 58.9887 42.5786 59.7005 42.65C60.416 42.7214 61.3983 43.0036 62.6583 43.4928C62.6832 43.4928 62.7046 43.5071 62.7295 43.5357C62.7794 43.5928 62.8149 43.65 62.8399 43.7107C62.8861 43.9143 62.8755 44.2607 62.8043 44.75C62.7295 45.2428 62.4519 46.0357 61.9714 47.1321C61.6546 48.2857 61.4126 49.2536 61.2453 50.0321C61.0531 50.8428 60.8822 51.6857 60.7363 52.5643C60.5939 53.4428 60.5441 54.1893 60.5939 54.7928L65.4916 56.3928L70.4604 57.9928V58.0357H70.4568ZM79.0205 45.525C79.0668 45.6107 79.0846 45.9071 79.0739 46.4143C79.0633 46.9178 79.0419 47.5321 79.0205 48.2536C78.9707 48.975 78.9209 49.7464 78.8746 50.5678C78.8248 51.3893 78.7785 52.175 78.7287 52.925C78.6575 53.6786 78.597 54.3321 78.5471 54.8964C78.4973 55.4607 78.476 55.8286 78.476 56C78.451 56.6071 78.4333 57.3786 78.419 58.3143C78.4083 59.2536 78.4012 60.1536 78.4012 61.0178V64.3964H78.2909C78.4866 64.6857 78.6539 64.9964 78.7999 65.325C78.9422 65.6571 79.0775 66.025 79.1985 66.4286C79.2448 66.6036 79.2875 66.8107 79.3266 67.0571C79.3622 67.3 79.3907 67.5536 79.4156 67.8143C79.437 68.075 79.4583 68.325 79.469 68.5714C79.4797 68.8178 79.4726 69 79.4512 69.1143C79.4014 69.6357 79.2982 70.1893 79.1416 70.7821C78.9849 71.375 78.7358 71.9428 78.3977 72.4928C78.056 73.0143 77.6039 73.4821 77.0344 73.9C76.4649 74.3178 75.746 74.6143 74.8739 74.7857C74.5358 74.8714 74.0695 74.9214 73.4751 74.9393C72.8843 74.9536 72.2614 74.8428 71.6065 74.6143C70.9551 74.3821 70.318 73.9857 69.7022 73.425C69.0865 72.8643 68.606 72.0214 68.2678 70.8928C68.1717 70.575 68.0934 70.0143 68.0329 69.2036C67.9724 68.3964 68.0614 67.5464 68.3034 66.65C68.5455 65.7571 68.9939 64.9214 69.6453 64.1393C70.2966 63.3607 71.3039 62.8393 72.6565 62.5821C73.0409 62.4964 73.4395 62.4536 73.8524 62.4536C73.9734 60.55 74.066 58.9107 74.1265 57.5428C74.187 56.1714 74.2404 55.3 74.2902 54.925C74.0233 54.9821 73.7919 54.9964 73.5997 54.9678C73.4075 54.9393 73.1655 54.925 72.8772 54.925C72.297 54.925 71.7417 54.8964 71.2078 54.8393C70.6739 54.7786 70.2148 54.7071 69.8268 54.6214C69.4139 54.5643 68.969 54.4786 68.4849 54.3607C68.2643 54.2464 68.1041 53.9786 67.9938 53.5607C67.8834 53.1428 67.8194 52.6714 67.7944 52.1536C67.7446 51.6643 67.7304 51.1857 67.7411 50.725C67.7517 50.2643 67.7695 49.9464 67.7944 49.775C67.8443 49.5714 67.9048 49.4714 67.976 49.4714C68.0258 49.4714 68.3568 49.4857 68.9726 49.5143C69.5883 49.5428 70.286 49.5714 71.0583 49.6036C71.8058 49.6607 72.5283 49.7107 73.2188 49.7536C73.9058 49.7964 74.3507 49.8178 74.5429 49.8178L75.1587 45.2714H75.1943C75.5573 45.1857 75.9026 45.125 76.23 45.0964C76.5539 45.0678 76.8636 45.0536 77.1555 45.0536C77.8531 45.0536 78.3336 45.125 78.5863 45.2714C78.8426 45.4143 78.9672 45.5036 78.9672 45.5321H79.0205V45.525ZM75.3544 70.1571C75.5004 69.9857 75.6214 69.6893 75.7175 69.2714C75.8136 68.8536 75.8278 68.4107 75.7531 67.95C75.6534 67.5178 75.4612 67.1357 75.1729 66.8036C74.881 66.4714 74.4361 66.3214 73.831 66.35C73.2722 66.3786 72.8451 66.5143 72.5426 66.7607C72.24 67.0071 72.03 67.3036 71.909 67.6464C71.788 67.9928 71.7346 68.3464 71.7453 68.7071C71.756 69.0678 71.788 69.35 71.8378 69.55C71.909 69.8393 72.0549 70.1107 72.2721 70.3714C72.4892 70.6286 72.7668 70.8178 73.1049 70.9321C73.4182 71.0464 73.7705 71.0536 74.1585 70.9536C74.5465 70.8571 74.9416 70.5893 75.3544 70.1571Z" fill="#EC008C"/>
</g>
</g>
<g id="Clip path group_5">
<mask id="mask4_243_51" style="mask-type:luminance" maskUnits="userSpaceOnUse" x="0" y="-119" width="212" height="302">
<g id="SVGID_2__5">
<path id="Vector_9" d="M211.879 -118.175H0V182.5H211.879V-118.175Z" fill="white"/>
</g>
</mask>
<g mask="url(#mask4_243_51)">
<path id="Vector_10" d="M102.459 52.5679C102.637 56.4357 101.946 59.4893 100.391 61.7322C99.7892 62.625 99.1236 63.3214 98.3904 63.8286C97.6571 64.3357 96.9346 64.7107 96.2227 64.9572C95.5109 65.2322 94.8453 65.4072 94.2224 65.4857C93.5995 65.5607 93.1012 65.6 92.7239 65.6H92.6243C92.4677 65.6 92.3004 65.5929 92.126 65.575C91.948 65.5607 91.8234 65.5536 91.7593 65.5536C90.4709 65.4607 89.3639 65.0714 88.4421 64.3786C87.5202 63.6857 86.7478 62.9107 86.1249 62.05C85.5021 61.1929 85.018 60.3322 84.6763 59.4714C84.331 58.6143 84.0926 57.9679 83.9609 57.5357C83.9146 57.3214 83.8648 57.0607 83.8114 56.7536C83.7544 56.4464 83.7082 56.2179 83.6619 56.0643C83.2846 53.2393 83.3985 50.6929 84.0107 48.4214C84.6229 46.15 85.7263 44.2 87.328 42.5714C87.7053 42.2036 88.1324 41.8822 88.6129 41.6036C89.0899 41.325 89.4849 41.1286 89.7946 41.0036C90.9265 40.6357 92.0049 40.45 93.03 40.45C96.3402 40.45 98.9955 42.475 100.996 46.5286C101.309 47.1429 101.569 47.7429 101.779 48.325C101.989 48.9072 102.153 49.5857 102.263 50.3536C102.348 51 102.416 51.7357 102.459 52.5679ZM98.0594 52.5679C97.949 51.1857 97.6394 49.9893 97.1268 48.975C96.9026 48.5464 96.6321 48.1393 96.3082 47.7536C95.9843 47.3714 95.5927 47.0572 95.1265 46.8107C94.6353 46.5643 94.0836 46.3964 93.4607 46.3036C92.8378 46.2107 92.1153 46.2429 91.2931 46.3964C90.8482 46.4893 90.3997 46.8036 89.9441 47.3393C89.4885 47.8786 89.0934 48.5429 88.7624 49.3429C88.4278 50.1714 88.1894 51.0607 88.047 52.0143C87.901 52.9679 87.9188 53.9036 88.0968 54.825C88.2534 55.7786 88.6094 56.6607 89.1646 57.4714C89.7199 58.2857 90.5314 58.9393 91.5992 59.4286C92.0868 59.675 92.731 59.7679 93.5319 59.7036C94.3327 59.6429 95.098 59.3679 95.8312 58.875C96.5431 58.3857 97.1304 57.6322 97.5966 56.6179C98.0594 55.6036 98.216 54.2536 98.0594 52.5679ZM108.193 71.1714C108.218 71.6929 108.203 72.1 108.161 72.3893C108.114 72.6786 108.072 72.9036 108.025 73.0572C107.961 73.2107 107.897 73.3179 107.844 73.3786C107.791 73.4393 107.748 73.4714 107.726 73.4714C107.371 73.5929 106.904 73.7179 106.324 73.8393C105.747 73.9643 105.135 74.0857 104.491 74.2107C103.825 74.3 103.16 74.4 102.491 74.5107C101.822 74.6179 101.224 74.7143 100.69 74.8107C100.134 74.8714 99.5009 74.9464 98.789 75.0429C98.5648 74.9822 98.3655 74.7429 98.191 74.3286C98.0131 73.9143 97.8565 73.4143 97.7248 72.8321C97.5682 72.2179 97.4471 71.5643 97.3582 70.875C97.2692 70.1822 97.1909 69.5322 97.1233 68.9143C97.0556 68.3322 97.0058 67.8322 96.9738 67.4214C96.9417 67.0072 96.9239 66.7679 96.9239 66.7072V66.6607H96.9595C97.0272 66.4143 97.1695 66.2143 97.3938 66.0607C97.6144 65.9072 97.8707 65.7857 98.159 65.6929C98.426 65.6322 98.7036 65.5857 98.9919 65.5572C99.2802 65.5286 99.5471 65.5107 99.7927 65.5107C99.8604 65.5107 99.9244 65.5214 99.9921 65.5357C100.06 65.5536 100.117 65.5607 100.159 65.5607H100.291C100.426 65.5929 100.54 65.775 100.64 66.1143C100.74 66.4536 100.832 66.8214 100.925 67.2179C101.014 67.65 101.081 68.0714 101.127 68.4857C101.17 68.9 101.202 69.2143 101.227 69.4286L107.929 67.9536H107.961C108.004 68.075 108.05 68.2286 108.093 68.4143C108.114 68.6286 108.136 68.95 108.161 69.3786C108.182 69.8036 108.193 70.4036 108.193 71.1714ZM106.627 42.7572C106.958 42.9107 107.221 43.4464 107.41 44.3679C107.598 45.2893 107.737 46.3929 107.826 47.6822C107.915 48.9714 107.965 50.3607 107.976 51.85C107.986 53.3393 107.983 54.7286 107.958 56.0179C107.936 57.3072 107.904 58.3964 107.858 59.2893C107.812 60.1786 107.791 60.6893 107.791 60.8107V60.9036C107.566 61.15 107.168 61.2714 106.591 61.2714C106.278 61.2714 105.975 61.2464 105.673 61.2036C105.374 61.1572 105.189 61.1179 105.125 61.0893C104.968 61.1786 104.815 61.1214 104.658 60.9072C104.438 60.6 104.263 59.9679 104.142 59.0179C104.021 58.0679 103.925 56.975 103.857 55.75C103.79 54.5214 103.751 53.2179 103.74 51.8357C103.729 50.4536 103.726 49.1822 103.726 48.0143C103.726 46.8464 103.736 45.8643 103.758 45.0643C103.779 44.2679 103.79 43.8072 103.79 43.6822C103.79 43.5 103.868 43.3429 104.021 43.2214C104.178 43.1 104.377 42.9893 104.619 42.9C104.843 42.8393 105.096 42.8 105.384 42.7857C105.673 42.7714 105.95 42.7643 106.221 42.7643H106.627V42.7572Z" fill="black"/>
</g>
</g>
<g id="Clip path group_6">
<mask id="mask5_243_51" style="mask-type:luminance" maskUnits="userSpaceOnUse" x="0" y="-119" width="212" height="302">
<g id="SVGID_2__6">
<path id="Vector_11" d="M211.879 -118.175H0V182.5H211.879V-118.175Z" fill="white"/>
</g>
</mask>
<g mask="url(#mask5_243_51)">
<path id="Vector_12" d="M130.887 62.7072C131.193 62.7072 131.41 62.8786 131.542 63.2143C131.627 63.5179 131.659 63.875 131.638 64.2857C131.617 64.7036 131.574 65.0929 131.51 65.4715C131.446 65.8857 131.325 66.375 131.15 66.9393C131.04 67.5429 130.894 67.9822 130.713 68.2643C130.527 68.5465 130.35 68.7429 130.175 68.8572C129.958 69.0072 129.741 69.0643 129.524 69.025C128.153 68.9143 126.847 68.6036 125.598 68.0929C124.349 67.5857 123.234 67.0322 122.259 66.4286C121.284 65.8643 120.472 65.3179 119.832 64.7929C119.191 64.2679 118.771 63.9143 118.579 63.7215C118.579 63.9857 118.597 64.3893 118.629 64.9357C118.661 65.4822 118.711 66.075 118.775 66.7143C118.842 67.3536 118.906 67.9929 118.97 68.6322C119.034 69.2715 119.088 69.8179 119.131 70.2679C119.216 70.7536 119.195 71.1679 119.066 71.5107C118.935 71.8107 118.75 72 118.511 72.0715C118.273 72.1465 118.088 72.1857 117.956 72.1857H117.892C116.308 72.1107 115.429 71.8465 115.251 71.3965C115.23 71.3607 115.219 71.3215 115.219 71.2822C114.827 70.1572 114.56 68.8643 114.422 67.4215C114.279 65.975 114.208 64.4607 114.208 62.8822C114.208 61.3393 114.272 59.7965 114.404 58.2572C114.535 56.7179 114.674 55.3072 114.827 54.0286C114.977 52.75 115.126 51.6536 115.269 50.7286C115.411 49.8107 115.511 49.2 115.578 48.8965L113.688 49.0072C113.382 49.0072 113.144 48.8 112.973 48.3893C112.82 48.0107 112.745 47.5322 112.745 46.95C112.745 46.3679 112.777 45.775 112.841 45.175C112.905 44.6107 112.984 44.1143 113.069 43.6822C113.154 43.25 113.201 43.0143 113.201 42.9786L113.233 42.9215H113.265C113.656 42.5465 114.258 42.2536 115.073 42.0465C115.888 41.8429 116.707 41.6822 117.532 41.5679C118.358 41.4929 119.091 41.4465 119.732 41.4286C120.373 41.4107 120.725 41.4 120.789 41.4C123.398 41.5893 125.434 41.8215 126.901 42.1072C128.367 42.3893 129.456 42.6607 130.175 42.925C130.869 43.2286 131.293 43.5 131.446 43.7429C131.599 43.9893 131.674 44.1286 131.674 44.1679C131.848 45.9357 131.891 47.2322 131.805 48.0607C131.72 48.8893 131.599 49.4536 131.446 49.75C131.318 49.975 131.207 50.1072 131.122 50.1465C131.054 50.1857 131.012 50.2036 130.99 50.2036C129.598 49.825 128.374 49.5072 127.31 49.2465C126.242 48.9822 125.31 48.775 124.505 48.625C123.701 48.5107 123.017 48.4286 122.451 48.3715C121.889 48.3143 121.423 48.2857 121.053 48.2857C120.661 48.2857 120.366 48.3072 120.173 48.3429C119.978 48.3822 119.857 48.4 119.814 48.4C119.554 49.7143 119.351 51.0143 119.212 52.2893C119.07 53.5679 118.988 55.05 118.97 56.7429C120.209 57.7965 121.515 58.6965 122.896 59.45C124.277 60.2036 125.552 60.8215 126.726 61.3107C127.901 61.8 128.872 62.1572 129.645 62.3822C130.414 62.6072 130.812 62.7179 130.834 62.7179H130.887V62.7072ZM135.71 45.0572C136.037 45.2465 136.29 45.9036 136.475 47.0322C136.657 48.1607 136.795 49.5107 136.884 51.0929C136.97 52.6715 137.02 54.375 137.03 56.1965C137.041 58.0215 137.034 59.7215 137.013 61.3C136.991 62.8786 136.959 64.2143 136.913 65.3036C136.87 66.3929 136.849 67.0179 136.849 67.1643V67.2786C136.632 67.5786 136.24 67.7286 135.674 67.7286C135.372 67.7286 135.073 67.7 134.781 67.6429C134.485 67.5857 134.307 67.5393 134.24 67.5036C134.09 67.6143 133.937 67.5429 133.784 67.2786C133.567 66.9 133.396 66.1322 133.279 64.9643C133.158 63.8 133.065 62.4643 133.001 60.9607C132.934 59.4572 132.898 57.8572 132.887 56.1679C132.877 54.4786 132.87 52.9179 132.87 51.4893C132.87 50.0607 132.88 48.8572 132.902 47.8786C132.923 46.9 132.934 46.3393 132.934 46.1857C132.934 45.9607 133.008 45.7715 133.161 45.6215C133.314 45.4715 133.51 45.3393 133.749 45.225C133.966 45.15 134.215 45.1036 134.496 45.0857C134.777 45.0679 135.051 45.0572 135.308 45.0572H135.71Z" fill="black"/>
</g>
</g>
<g id="Clip path group_7">
<mask id="mask6_243_51" style="mask-type:luminance" maskUnits="userSpaceOnUse" x="0" y="-119" width="212" height="302">
<g id="SVGID_2__7">
<path id="Vector_13" d="M211.879 -118.175H0V182.5H211.879V-118.175Z" fill="white"/>
</g>
</mask>
<g mask="url(#mask6_243_51)">
<path id="Vector_14" d="M154.738 49.2107C154.606 49.1571 154.485 49.1214 154.371 49.1071C154.261 49.0929 154.147 49.0571 154.033 49.0036C153.976 50.7393 153.862 52.4821 153.695 54.2321C153.528 55.9821 153.332 57.7786 153.104 59.625C154.136 59.2964 154.83 59.4321 155.186 60.0393C155.336 60.2607 155.421 60.4893 155.439 60.7214C155.457 60.9571 155.457 61.1 155.439 61.1571C155.663 62.4786 155.638 63.3893 155.357 63.8821C155.261 64.075 155.151 64.2 155.019 64.2536C154.944 64.3107 154.887 64.3357 154.852 64.3357C153.951 64.6643 152.997 64.9571 151.983 65.2036C151.834 65.3143 151.588 65.3679 151.253 65.3679C150.239 65.5893 149.242 65.7607 148.256 65.8821C147.27 66.0071 146.395 66.0964 145.626 66.15C144.839 66.2036 144.206 66.2393 143.725 66.2536C143.248 66.2679 142.999 66.275 142.978 66.275H142.893C142.722 66.275 142.583 66.1714 142.473 65.9643C142.359 65.7571 142.277 65.5179 142.22 65.2393C142.145 64.9929 142.099 64.7571 142.077 64.5393C142.06 64.3179 142.049 64.1964 142.049 64.1679C141.992 63.5071 141.999 62.9821 142.063 62.5964C142.127 62.2107 142.209 61.9107 142.302 61.6893C142.376 61.4964 142.508 61.3321 142.697 61.1929H142.725C142.989 61.2214 143.245 61.2357 143.498 61.2357H144.274H144.75C144.526 60.0786 144.327 58.8893 144.16 57.6607C143.992 56.4357 143.843 55.2286 143.711 54.0429C143.579 52.8571 143.466 51.7429 143.373 50.6964C143.277 49.65 143.202 48.7107 143.149 47.8857H143.006C142.255 47.8857 141.739 47.625 141.458 47.1C141.309 46.825 141.237 46.5643 141.248 46.3143C141.259 46.0643 141.262 45.9143 141.262 45.8607C141.188 44.5929 141.301 43.7107 141.6 43.2143C141.657 43.1036 141.722 43.0214 141.8 42.9643C141.875 42.9107 141.939 42.8679 141.996 42.8393C142.07 42.8107 142.134 42.8107 142.191 42.8393C142.565 42.7857 142.978 42.7357 143.43 42.6929C143.878 42.6536 144.359 42.6321 144.864 42.6321C146.007 42.6321 147.174 42.7071 148.367 42.8607C149.559 43.0143 150.641 43.1714 151.616 43.3357C152.574 43.5286 153.36 43.7071 153.98 43.8714C154.599 44.0357 154.916 44.1179 154.937 44.1179C155.087 44.1179 155.218 44.2 155.332 44.3679C155.425 44.5071 155.496 44.6929 155.542 44.925C155.589 45.1607 155.624 45.375 155.642 45.5679V46.4357C155.624 47.0964 155.567 47.6071 155.471 47.9643C155.375 48.3214 155.283 48.6 155.19 48.7893C155.08 48.9821 154.937 49.1214 154.77 49.2036H154.738V49.2107ZM148.267 60.5786C148.306 60.7429 148.335 60.8536 148.353 60.9107C148.858 60.8286 149.338 60.7429 149.787 60.6607C150.011 59.175 150.182 57.775 150.307 56.4643C150.428 55.1571 150.527 53.9643 150.602 52.8893C150.677 51.8143 150.727 50.8929 150.755 50.1214C150.784 49.35 150.798 48.7571 150.798 48.3429C149.99 48.2036 149.232 48.1107 148.52 48.0536C147.808 47.9964 147.149 47.9429 146.548 47.8893C146.662 49.7071 146.815 51.3893 147.014 52.9321C147.21 54.475 147.402 55.8107 147.591 56.9393C147.779 58.0714 147.936 58.9536 148.068 59.5857C148.199 60.2179 148.267 60.55 148.267 60.5786ZM162.867 70.9107C162.885 71.3786 162.875 71.7429 162.839 72.0036C162.8 72.2643 162.764 72.4643 162.725 72.6036C162.668 72.7393 162.593 72.8643 162.501 72.975C162.202 73.0857 161.807 73.1964 161.319 73.3036C160.832 73.4143 160.308 73.525 159.742 73.6357C159.18 73.7179 158.618 73.8071 158.055 73.9036C157.493 74 156.987 74.0893 156.535 74.1714C156.066 74.225 155.532 74.2929 154.934 74.3786C154.745 74.3214 154.578 74.1107 154.428 73.7357C154.279 73.3643 154.147 72.9143 154.033 72.3929C153.902 71.8429 153.798 71.2571 153.724 70.6393C153.649 70.0179 153.585 69.4321 153.528 68.8821C153.471 68.3607 153.432 67.9107 153.414 67.5393C153.396 67.1679 153.385 66.9536 153.385 66.8964V66.8571C153.46 66.6357 153.592 66.4571 153.78 66.3179C153.966 66.1821 154.183 66.0714 154.428 65.9857C154.653 65.9321 154.887 65.8893 155.129 65.8643C155.372 65.8357 155.589 65.8214 155.777 65.8214C155.834 65.8214 155.891 65.8286 155.948 65.8429C156.005 65.8571 156.051 65.8643 156.087 65.8643H156.201C156.315 65.8929 156.411 66.0571 156.496 66.3607C156.582 66.6643 156.66 66.9929 156.735 67.35C156.809 67.7393 156.874 68.1179 156.916 68.4893C156.963 68.8607 156.995 69.1429 157.016 69.3357L162.643 68.0143H162.672C162.707 68.125 162.746 68.2607 162.782 68.4286C162.8 68.6214 162.821 68.9107 162.839 69.2964C162.857 69.6821 162.867 70.2214 162.867 70.9107ZM160.561 51.3607C160.6 51.9679 160.636 52.5179 160.671 53.0143C160.71 53.5107 160.753 54.0679 160.799 54.6857C160.846 55.3071 160.888 55.9321 160.924 56.5643C160.999 57.7786 161.045 58.7357 161.063 59.4393C161.081 60.1393 161.091 60.6714 161.091 61.0286C161.091 61.4143 161.077 61.6643 161.049 61.7714C161.02 61.8821 160.999 61.95 160.977 61.9786C160.938 62.0643 160.828 62.1571 160.639 62.2679C160.451 62.3786 160.088 62.4321 159.543 62.4321C159.337 62.4321 159.102 62.4179 158.838 62.3893C158.575 62.3607 158.294 62.3214 157.995 62.2679H157.966C157.948 62.2393 157.891 62.1071 157.795 61.875C157.703 61.6429 157.607 61.25 157.514 60.7L157.151 57.2679H157.123C157.105 57.2679 156.987 57.2607 156.77 57.2464C156.553 57.2321 156.297 57.1857 155.998 57.1036C155.695 57.05 155.396 56.9536 155.097 56.8143C154.798 56.6786 154.553 56.5 154.368 56.2786L154.339 56.2357V56.1929C154.322 56.0571 154.3 55.8071 154.282 55.45C154.265 55.0929 154.254 54.7071 154.254 54.2929C154.236 53.9071 154.236 53.5429 154.254 53.1964C154.272 52.8536 154.311 52.625 154.364 52.5143C154.4 52.4607 154.45 52.4321 154.503 52.4321L156.952 52.35C156.952 52.1036 156.941 51.625 156.923 50.925C156.906 50.2214 156.895 49.4714 156.895 48.6714C156.895 47.9 156.916 47.1786 156.966 46.5C157.012 45.825 157.094 45.4036 157.205 45.2393C157.222 45.1571 157.269 45.1143 157.343 45.1143L159.539 44.7821L159.596 44.7429C159.977 44.7464 160.298 46.9536 160.561 51.3607ZM165.761 63.4714C165.8 63.5821 165.779 63.7036 165.708 63.8429C165.558 64.1464 165.209 64.2964 164.665 64.2964L162.921 64.3393C162.903 64.3393 162.86 64.325 162.793 64.2964C162.725 64.2679 162.668 64.1857 162.608 64.05C162.533 63.9393 162.472 63.7536 162.426 63.4929C162.38 63.2286 162.355 62.8679 162.355 62.3964C162.337 62.2893 162.298 61.8107 162.241 60.9714C162.184 60.1321 162.12 59.1036 162.045 57.8929C161.97 56.6821 161.889 55.3643 161.807 53.9464C161.721 52.5286 161.661 51.1714 161.622 49.8786C161.568 48.6107 161.536 47.5 161.536 46.55C161.536 45.6 161.575 44.9714 161.65 44.6679V44.5857H161.707C161.725 44.5857 161.817 44.5643 161.988 44.525C162.159 44.4821 162.362 44.4357 162.604 44.3821C162.85 44.3286 163.102 44.2786 163.366 44.2393C163.629 44.1964 163.864 44.1786 164.07 44.1786C164.22 44.1786 164.352 44.2071 164.466 44.2607H164.494V44.3036C164.494 44.3321 164.54 44.5857 164.636 45.0679C164.729 45.55 164.843 46.4821 164.975 47.8571C165.106 49.2607 165.242 51.2036 165.384 53.6857C165.523 56.1536 165.651 59.4214 165.761 63.4714Z" fill="black"/>
</g>
</g>
<g id="Clip path group_8">
<mask id="mask7_243_51" style="mask-type:luminance" maskUnits="userSpaceOnUse" x="0" y="-119" width="212" height="302">
<g id="SVGID_2__8">
<path id="Vector_15" d="M211.879 -118.175H0V182.5H211.879V-118.175Z" fill="white"/>
</g>
</mask>
<g mask="url(#mask7_243_51)">
<path id="Vector_16" d="M177.767 32.8643C178.902 32.1714 180.397 31.5072 181.967 32.8322C183.408 34.0429 183.782 36.1607 181.945 38.3572C180.013 40.6714 173.225 42.4893 169.121 43.15C168.925 39.1393 169.513 32.3214 171.915 29.4464C173.293 27.8 175.492 27.3822 177.051 28.6964C178.585 29.9857 178.244 31.5714 177.81 32.7572L177.767 32.8643Z" fill="#F9CBDF"/>
</g>
</g>
<g id="Clip path group_9">
<mask id="mask8_243_51" style="mask-type:luminance" maskUnits="userSpaceOnUse" x="0" y="-119" width="212" height="302">
<g id="SVGID_2__9">
<path id="Vector_17" d="M211.879 -118.175H0V182.5H211.879V-118.175Z" fill="white"/>
</g>
</mask>
<g mask="url(#mask8_243_51)">
<path id="Vector_18" d="M161.483 29.1393C161.483 28.3036 161.65 27.2607 163.149 26.5857C164.526 25.9643 166.067 26.1786 166.772 27.7536C167.512 29.4107 165.978 33.9036 164.761 36.5286C162.045 35.8107 157.806 34.0286 156.884 31.9714C156.357 30.7893 156.97 29.3714 158.457 28.7C159.92 28.0393 160.824 28.575 161.426 29.0893L161.483 29.1393Z" fill="#EC008C"/>
</g>
</g>
<g id="Clip path group_10">
<mask id="mask9_243_51" style="mask-type:luminance" maskUnits="userSpaceOnUse" x="0" y="-119" width="212" height="302">
<g id="SVGID_2__10">
<path id="Vector_19" d="M211.879 -118.175H0V182.5H211.879V-118.175Z" fill="white"/>
</g>
</mask>
<g mask="url(#mask9_243_51)">
<path id="Vector_20" d="M11.0552 16.2179C11.1086 16.3857 11.1442 16.575 11.162 16.7893C11.1834 17.0036 11.1798 17.2215 11.1584 17.45C11.13 17.6822 11.0766 17.9143 11.0018 18.1429C10.9271 18.3715 10.8203 18.5893 10.6815 18.7893C10.5356 18.9965 10.3576 19.1822 10.144 19.3536C9.93048 19.5215 9.67065 19.6536 9.37167 19.75C9.23997 19.7965 9.09048 19.8286 8.9232 19.8536C8.75591 19.875 8.58506 19.8857 8.40709 19.8786C8.22913 19.8715 8.0476 19.8465 7.86252 19.8072C7.67743 19.7643 7.49947 19.7036 7.32862 19.6286C7.02964 19.4929 6.76981 19.2893 6.54557 19.0179C6.32133 18.7465 6.17184 18.3893 6.09709 17.9429C6.07574 17.7929 6.0615 17.6107 6.05438 17.3893C6.04726 17.1715 6.06506 16.9357 6.10777 16.6893C6.14336 16.45 6.20387 16.2036 6.29642 15.9536C6.38896 15.7 6.51709 15.4643 6.68438 15.2465C6.85167 15.0322 7.06167 14.8465 7.31794 14.6893C7.57421 14.5322 7.88387 14.4179 8.25404 14.3536C8.46048 14.3143 8.70252 14.3143 8.97303 14.35C9.24709 14.3857 9.5176 14.475 9.78811 14.6179C10.0515 14.7607 10.3007 14.9607 10.5284 15.2179C10.7598 15.4679 10.9342 15.8036 11.0552 16.2179ZM10.6993 20.2929C10.7207 20.3179 10.7349 20.3715 10.742 20.4536C10.7491 20.5357 10.7491 20.6215 10.742 20.7107C10.7349 20.8072 10.7242 20.9 10.71 20.9822C10.6957 21.0679 10.6815 21.125 10.6637 21.1572V21.175C10.6637 21.1822 10.6566 21.1929 10.6423 21.2036C10.6281 21.2179 10.5925 21.2286 10.5427 21.2429C10.4929 21.2572 10.4074 21.2679 10.2971 21.275C10.1832 21.2857 10.0266 21.2893 9.82726 21.2893H9.66709C9.6137 21.2893 9.55675 21.2857 9.49981 21.2786C9.49981 21.3107 9.49981 21.3715 9.49625 21.4572C9.49269 21.5429 9.48913 21.6393 9.48557 21.7429C9.47845 21.8536 9.47133 21.9643 9.46065 22.075C9.44998 22.1857 9.43574 22.2786 9.41794 22.3572C9.41794 22.375 9.41438 22.3893 9.41082 22.3965C9.39303 22.4357 9.3254 22.4465 9.20438 22.4357C9.1937 22.4357 9.15099 22.4393 9.07981 22.45C9.00862 22.4607 8.93031 22.4643 8.84133 22.4643C8.62421 22.4643 8.4854 22.425 8.42845 22.3465C8.40709 22.3143 8.39286 22.2679 8.39286 22.2107V21.3679C8.35726 21.3679 8.28252 21.3643 8.16506 21.3572C8.0476 21.35 7.91947 21.3429 7.78065 21.3286C7.64184 21.3215 7.51014 21.3143 7.38557 21.3036C7.26099 21.2929 7.16845 21.2857 7.10794 21.2786H7.09014V21.2607C7.09014 21.2536 7.08658 21.2143 7.07591 21.1393C7.06879 21.0643 7.06523 20.9786 7.06523 20.8822C7.06523 20.7857 7.07235 20.6893 7.08659 20.5893C7.10082 20.4929 7.1293 20.4179 7.16845 20.3679C7.20404 20.3143 7.25387 20.2965 7.32506 20.3107C7.34286 20.3107 7.4176 20.3107 7.5493 20.3072C7.68099 20.3036 7.84472 20.3 8.04048 20.2929C8.23625 20.2929 8.45336 20.2929 8.69184 20.2893C8.93031 20.2857 9.16879 20.2786 9.4037 20.2643C9.6315 20.2572 9.84862 20.25 10.0515 20.2393C10.2508 20.2286 10.4146 20.2179 10.5427 20.2036C10.5534 20.2036 10.5783 20.2072 10.6103 20.2143C10.6388 20.2215 10.6708 20.2465 10.6993 20.2929ZM9.15099 18.6143C9.32184 18.5357 9.47489 18.4322 9.60659 18.3C9.73828 18.1679 9.84862 18.0179 9.93404 17.85C10.0159 17.6822 10.0693 17.5072 10.0942 17.325C10.1191 17.1429 10.112 16.9679 10.0729 16.7929C10.0195 16.5607 9.94116 16.3607 9.83082 16.2C9.72048 16.0393 9.59591 15.9072 9.44997 15.8036C9.3076 15.7072 9.15455 15.6393 8.99438 15.6C8.83421 15.5607 8.67048 15.55 8.51031 15.5607C8.26828 15.5786 8.05828 15.6429 7.88031 15.7465C7.70235 15.85 7.55998 15.9857 7.44964 16.1536C7.33574 16.3215 7.25031 16.5179 7.20048 16.7465C7.15065 16.9715 7.13286 17.2179 7.15065 17.4857C7.16845 17.7 7.23964 17.8965 7.36065 18.0822C7.48523 18.2679 7.64184 18.4143 7.83048 18.525C8.01913 18.6357 8.23269 18.7036 8.46404 18.7286C8.6954 18.7465 8.92675 18.7107 9.15099 18.6143Z" fill="white"/>
</g>
</g>
<g id="Clip path group_11">
<mask id="mask10_243_51" style="mask-type:luminance" maskUnits="userSpaceOnUse" x="0" y="-119" width="212" height="302">
<g id="SVGID_2__11">
<path id="Vector_21" d="M211.879 -118.175H0V182.5H211.879V-118.175Z" fill="white"/>
</g>
</mask>
<g mask="url(#mask10_243_51)">
<path id="Vector_22" d="M27.7271 18.6858C27.7271 18.6929 27.7342 18.7322 27.752 18.8072C27.7698 18.8822 27.784 18.9715 27.7947 19.075C27.8054 19.1858 27.809 19.3036 27.7983 19.4286C27.7876 19.5536 27.7591 19.675 27.7057 19.7929L27.6986 19.8036H27.6808C27.6737 19.8036 27.5883 19.7893 27.421 19.7608C27.2537 19.7322 27.0473 19.6858 26.8017 19.6286C26.5561 19.575 26.2927 19.5107 26.0186 19.425C25.741 19.3393 25.4918 19.2393 25.2676 19.125C25.2676 19.175 25.2676 19.2643 25.2712 19.3929C25.2747 19.5179 25.2676 19.6536 25.2569 19.7965C25.2462 19.9393 25.2249 20.075 25.1964 20.2108C25.1679 20.3429 25.1252 20.4429 25.0683 20.5072C25.0185 20.5536 24.9722 20.575 24.9401 20.575C24.9223 20.575 24.8974 20.5679 24.8618 20.5572L23.9578 20.3643V20.3536C23.9578 20.3465 23.9507 20.3072 23.94 20.2322C23.9293 20.1572 23.9222 20.0322 23.9222 19.8608C23.9222 19.6929 23.9364 19.4643 23.9649 19.1822C23.9934 18.8965 24.0468 18.5429 24.1215 18.1143C24.1322 18.0358 24.1571 17.9108 24.1891 17.7358C24.2247 17.5608 24.2603 17.3679 24.2995 17.1536C24.3386 16.9393 24.3849 16.7179 24.4383 16.4893C24.4917 16.2607 24.5415 16.05 24.5913 15.8643C24.6376 15.675 24.6839 15.525 24.7337 15.4036C24.7835 15.2858 24.8262 15.225 24.869 15.225H24.8868C24.9046 15.225 24.9971 15.2322 25.1679 15.25C25.3388 15.2679 25.5701 15.3286 25.8691 15.4393C25.8762 15.4393 25.8798 15.4429 25.8869 15.45C25.8976 15.4643 25.9083 15.475 25.9118 15.4893C25.9225 15.5358 25.919 15.6143 25.9047 15.7215C25.8869 15.8322 25.8229 16.0107 25.7054 16.2536C25.6307 16.5143 25.5737 16.7286 25.5346 16.9036C25.4883 17.0858 25.4491 17.275 25.4135 17.4715C25.3779 17.6679 25.3673 17.8358 25.3779 17.9715L26.5418 18.3322L27.7235 18.6929V18.6858H27.7271ZM29.763 15.8822C29.7737 15.9 29.7773 15.9679 29.7773 16.0822C29.7737 16.1965 29.7701 16.3322 29.763 16.4929C29.7524 16.6536 29.7417 16.8286 29.7274 17.0143C29.7168 17.1965 29.7025 17.375 29.6918 17.5429C29.674 17.7108 29.6598 17.8572 29.6491 17.9858C29.6385 18.1108 29.6313 18.1929 29.6313 18.2322C29.6242 18.3679 29.6207 18.5429 29.6171 18.75C29.6135 18.9608 29.6135 19.1643 29.6135 19.3572V20.1143H29.5886C29.6349 20.1786 29.674 20.25 29.7096 20.325C29.7452 20.4 29.7773 20.4822 29.8057 20.5715C29.8164 20.6107 29.8271 20.6572 29.8342 20.7108C29.8413 20.7643 29.8485 20.8215 29.8556 20.8822C29.8591 20.9393 29.8662 20.9965 29.8698 21.05C29.8734 21.1036 29.8698 21.1465 29.8662 21.1715C29.8556 21.2857 29.8307 21.4107 29.7915 21.5429C29.7523 21.675 29.6954 21.8036 29.6135 21.925C29.5352 22.0429 29.4249 22.1465 29.2896 22.2393C29.1544 22.3322 28.9835 22.4 28.7771 22.4393C28.6952 22.4572 28.5849 22.4679 28.4461 22.4715C28.3073 22.475 28.1578 22.45 28.0012 22.4C27.8481 22.35 27.6951 22.2608 27.5491 22.1322C27.4032 22.0072 27.2893 21.8179 27.2074 21.5643C27.1825 21.4929 27.1647 21.3679 27.1505 21.1858C27.1362 21.0036 27.1576 20.8143 27.2146 20.6143C27.2715 20.4143 27.3783 20.225 27.5349 20.05C27.6879 19.875 27.9264 19.7572 28.2503 19.7C28.3429 19.6786 28.4354 19.6715 28.5351 19.6715C28.5635 19.2429 28.5849 18.8786 28.5991 18.5715C28.6134 18.2643 28.6276 18.0679 28.6383 17.9858C28.5742 18 28.5208 18 28.4746 17.9965C28.4283 17.9893 28.3713 17.9858 28.3001 17.9858C28.1613 17.9858 28.0296 17.9786 27.9051 17.9679C27.7769 17.9536 27.6701 17.9393 27.5776 17.9179C27.4779 17.9036 27.3712 17.8857 27.2573 17.8607C27.2039 17.8357 27.1683 17.775 27.1398 17.6822C27.1149 17.5893 27.0971 17.4822 27.09 17.3643C27.0793 17.2536 27.0757 17.1465 27.0757 17.0429C27.0793 16.9393 27.0829 16.8679 27.09 16.8286C27.1007 16.7822 27.1149 16.7608 27.1327 16.7608C27.1434 16.7608 27.2217 16.7643 27.3712 16.7715C27.5171 16.7786 27.6844 16.7857 27.8659 16.7893C28.0439 16.8036 28.2147 16.8143 28.3785 16.825C28.5422 16.8358 28.6454 16.8393 28.6917 16.8393L28.8376 15.8215H28.8447C28.9301 15.8036 29.012 15.7893 29.0903 15.7822C29.1686 15.775 29.2398 15.7715 29.311 15.7715C29.4783 15.7715 29.5922 15.7893 29.6527 15.8215C29.7132 15.8536 29.7417 15.8715 29.7417 15.8786H29.763V15.8822ZM28.891 21.4C28.9266 21.3607 28.9551 21.2965 28.9764 21.2C28.9978 21.1036 29.0013 21.0072 28.9871 20.9036C28.9622 20.8072 28.9195 20.7215 28.8483 20.6465C28.7807 20.5715 28.6703 20.5393 28.5279 20.5429C28.3962 20.55 28.293 20.5786 28.2218 20.6357C28.1507 20.6893 28.1008 20.7572 28.0724 20.8358C28.0439 20.9143 28.0296 20.9929 28.0332 21.075C28.0368 21.1572 28.0439 21.2179 28.0546 21.2643C28.0724 21.3286 28.1079 21.3893 28.1578 21.45C28.2112 21.5072 28.2752 21.55 28.3571 21.575C28.4318 21.6 28.5137 21.6 28.6062 21.5786C28.6988 21.5572 28.7949 21.5 28.891 21.4Z" fill="white"/>
</g>
</g>
<g id="Clip path group_12">
<mask id="mask11_243_51" style="mask-type:luminance" maskUnits="userSpaceOnUse" x="0" y="-119" width="212" height="302">
<g id="SVGID_2__12">
<path id="Vector_23" d="M211.879 -118.175H0V182.5H211.879V-118.175Z" fill="white"/>
</g>
</mask>
<g mask="url(#mask11_243_51)">
<path id="Vector_24" d="M17.4442 17.2858H14.3227V18.0036H13.86V16.9036H15.6183C15.6183 16.7822 15.5898 16.45 15.5898 16.4393L16.1807 16.4786L16.1308 16.9036H17.9105V18.0036H17.4442V17.2858ZM17.1666 18.2679H16.1202V18.9143H17.793V19.3143H16.1202V20.2572C16.1202 20.4965 16.1237 20.6358 15.9173 20.7786C15.693 20.9358 15.2517 20.8858 15.2268 20.8822L15.0239 20.4179L15.4866 20.4322C15.6396 20.4286 15.629 20.2465 15.629 20.1108V19.3108H13.9917V18.9108H15.629V18.2643H14.5825V17.875H17.1666V18.2679Z" fill="black"/>
</g>
</g>
<g id="Clip path group_13">
<mask id="mask12_243_51" style="mask-type:luminance" maskUnits="userSpaceOnUse" x="0" y="-119" width="212" height="302">
<g id="SVGID_2__13">
<path id="Vector_25" d="M211.879 -118.175H0V182.5H211.879V-118.175Z" fill="white"/>
</g>
</mask>
<g mask="url(#mask12_243_51)">
<path id="Vector_26" d="M20.2098 17.3536C20.2098 17.35 20.2098 17.0822 20.1991 16.9107C20.1885 16.7465 20.1707 16.4965 20.1707 16.4822L20.6761 16.5286C20.6761 16.5322 20.6618 16.6715 20.6583 16.7572L20.6512 17.3643H22.1959V17.75H20.6868C20.6868 17.7572 20.7046 18.1715 20.7544 18.4572C20.8469 18.9965 20.9857 19.3322 20.9964 19.3572C21 19.3536 21.1637 19.1607 21.3346 18.7465C21.4235 18.5322 21.5161 18.2179 21.5161 18.2072L21.9183 18.3929C21.904 18.4429 21.6086 19.3715 21.2064 19.8C21.2064 19.8036 21.5054 20.3857 21.7439 20.4179C21.8578 20.4322 22.0713 19.9786 22.0713 19.9643L22.4095 20.2679C22.4095 20.2715 22.2173 20.7607 21.8542 20.8857C21.3951 21.0393 20.879 20.1215 20.879 20.1107C20.014 20.8036 19.3485 20.8965 19.3378 20.8965L19.0068 20.5357C19.0566 20.5286 20.0318 20.3965 20.669 19.6965C20.6654 19.6857 20.4661 19.2465 20.3842 18.8357C20.2739 18.3107 20.2347 17.7679 20.2347 17.7536H18.9213V18.3429H20.0176C20.0176 18.4072 20.0568 19.6607 19.8361 20.0357C19.6866 20.2822 19.1064 20.2179 19.0922 20.2143L19.0103 19.7607C19.0139 19.7607 19.2844 19.8607 19.4481 19.7607C19.5976 19.6715 19.5869 18.7286 19.5834 18.725H18.9249C18.9249 18.7286 18.8822 19.4893 18.7256 20.025C18.5334 20.6679 18.3412 20.9536 18.3376 20.9643L17.9283 20.7429C17.9959 20.6786 18.3163 20.2465 18.4657 19.2215C18.5547 18.6 18.4657 17.4 18.4622 17.3715H20.2098V17.3536ZM21.4129 16.4893C21.4164 16.4929 21.541 16.6143 21.6051 16.6857C21.8115 16.9322 21.8791 17.0465 21.8863 17.05L21.5161 17.3179C21.5125 17.3143 21.4093 17.0965 21.3203 16.9822C21.2278 16.8643 21.1032 16.725 21.0925 16.7143L21.4129 16.4893Z" fill="black"/>
</g>
</g>
</g>
<g id="Group_2">
<path id="Vector_27" d="M31.1619 29.7069C31.201 29.289 31.3647 28.9461 31.653 28.6783C31.9413 28.4104 32.2937 28.2676 32.7173 28.2497C33.1337 28.2319 33.4719 28.364 33.7281 28.6497C33.9844 28.9354 34.0947 29.2854 34.0485 29.7069C34.0093 30.1247 33.8385 30.4711 33.5395 30.7426C33.2405 31.014 32.8846 31.1604 32.4752 31.1711C32.0695 31.1819 31.742 31.0461 31.4857 30.764C31.2295 30.4819 31.1191 30.1283 31.1619 29.7069ZM31.7171 29.7069C31.6886 30.0104 31.7456 30.2497 31.8844 30.4283C32.0232 30.6069 32.2261 30.6926 32.4859 30.6854C32.7529 30.6747 32.9807 30.5783 33.1693 30.4033C33.358 30.2247 33.4647 29.9961 33.4932 29.7104C33.5217 29.4247 33.4612 29.189 33.3081 29.0033C33.1586 28.8176 32.9522 28.7283 32.6959 28.7319C32.4219 28.739 32.1976 28.8319 32.0196 29.014C31.8452 29.1961 31.7456 29.4247 31.7171 29.7069ZM33.1693 32.4319C33.2654 32.7961 33.3152 33.2426 33.3152 33.7676C33.3152 33.8819 33.3295 33.9569 33.3615 33.9961C33.3935 34.0319 33.4683 34.0533 33.5893 34.0533C33.7495 34.0533 33.9773 34.0426 34.2763 34.0247C34.5752 34.0033 34.9098 33.9783 35.2764 33.9461C35.643 33.914 35.8886 33.8926 36.0168 33.8819C36.1307 33.8747 36.209 33.9104 36.2481 33.989C36.2873 34.0676 36.2837 34.1497 36.241 34.239C36.1983 34.3283 36.1235 34.3747 36.0274 34.3819C34.6393 34.4854 33.778 34.539 33.4469 34.5461C32.9985 34.5533 32.7707 34.3283 32.7707 33.8783C32.7707 33.4497 32.7208 33.0211 32.6247 32.5926C32.5963 32.4711 32.6247 32.3819 32.7066 32.3176C32.7885 32.2533 32.881 32.2354 32.9842 32.2604C33.0839 32.2819 33.1444 32.339 33.1693 32.4319ZM35.4651 32.4569C35.4757 30.0854 35.4722 28.439 35.4473 27.5211C35.4473 27.4461 35.4758 27.389 35.5327 27.3497C35.5896 27.3104 35.6537 27.289 35.7213 27.289C35.789 27.289 35.853 27.3104 35.9135 27.3533C35.9741 27.3961 36.0025 27.4533 36.0025 27.5211C36.0203 28.9497 36.0239 30.5461 36.0096 32.314C36.0096 32.4104 35.9634 32.4926 35.8744 32.5569C35.7819 32.6211 35.6929 32.6461 35.6003 32.6283C35.5113 32.6104 35.4651 32.5533 35.4651 32.4569Z" fill="black"/>
<path id="Vector_28" d="M38.01 29.0893C38.7895 29.0536 39.6117 28.95 40.4801 28.7714C40.6011 28.75 40.6901 28.7964 40.7542 28.9143C40.8183 29.0321 40.8325 29.1393 40.7969 29.2357C40.6332 29.7036 40.3342 30.1928 39.9071 30.7C40.5691 31.1786 41.0817 31.5678 41.4447 31.8643C41.5657 31.9678 41.5764 32.0964 41.4803 32.25C41.3842 32.4036 41.2739 32.4286 41.1457 32.3178C40.6154 31.8714 40.0957 31.4536 39.5832 31.0678C39.0066 31.675 38.4228 32.1178 37.8249 32.4036C37.6825 32.4714 37.5579 32.4893 37.4547 32.45C37.3479 32.4143 37.2981 32.3571 37.2981 32.2786C37.2981 32.2 37.3301 32.1393 37.3906 32.0928C38.074 31.7107 38.6613 31.2643 39.1561 30.75C39.6472 30.2393 39.9676 29.775 40.11 29.3571C39.3589 29.4786 38.7183 29.5571 38.1879 29.5964C38.1025 29.6036 38.0313 29.5786 37.9744 29.5286C37.9174 29.4786 37.8818 29.4178 37.8676 29.3536C37.8533 29.2893 37.8605 29.225 37.8854 29.1678C37.9032 29.1178 37.9495 29.0893 38.01 29.0893ZM42.4627 34.625C42.4983 31.4643 42.4947 29.0964 42.4556 27.5178C42.4556 27.4428 42.484 27.3857 42.541 27.3464C42.5979 27.3071 42.662 27.2857 42.7332 27.2857C42.8044 27.2857 42.8684 27.3071 42.9289 27.35C42.9895 27.3928 43.0179 27.45 43.0179 27.5178C43.025 29.8393 43.025 32.1571 43.0179 34.4786C43.0179 34.575 42.9717 34.6571 42.8827 34.7214C42.7901 34.7857 42.6976 34.8107 42.605 34.7928C42.5089 34.7821 42.4627 34.725 42.4627 34.625Z" fill="black"/>
<path id="Vector_29" d="M48.663 31.3857C48.2644 31.4643 47.5988 31.5643 46.6627 31.6857C45.7302 31.8071 45.0753 31.8714 44.7051 31.8821C44.6125 31.8821 44.5414 31.8428 44.4844 31.7607C44.4275 31.6821 44.4061 31.5964 44.4239 31.5107C44.4417 31.425 44.4951 31.3786 44.5876 31.375C45.093 31.3464 45.7088 31.2928 46.4314 31.2107C46.442 31.075 46.442 30.9178 46.4314 30.7464C46.0683 30.7571 45.7836 30.6678 45.5771 30.475C45.3707 30.2821 45.2888 30.05 45.328 29.775C45.3564 29.525 45.4988 29.3071 45.7586 29.1286C46.0185 28.95 46.3388 28.85 46.7197 28.8321C47.1005 28.8143 47.403 28.9 47.6237 29.0893C47.8444 29.2786 47.9334 29.5071 47.8871 29.775C47.8586 29.9821 47.7625 30.1607 47.5953 30.3143C47.4315 30.4678 47.218 30.5821 46.9617 30.6571C46.9724 30.8214 46.9724 30.9821 46.9617 31.1357C47.7092 31.0393 48.2751 30.9464 48.663 30.8607C48.7485 30.8428 48.8125 30.875 48.8517 30.95C48.8908 31.0286 48.8944 31.1107 48.8588 31.2036C48.8339 31.3071 48.7663 31.3643 48.663 31.3857ZM48.0473 28.4107C47.8408 28.475 47.3675 28.55 46.6236 28.6393C45.8797 28.7286 45.2888 28.7714 44.851 28.7714C44.7834 28.7714 44.7264 28.7464 44.6802 28.6928C44.6339 28.6393 44.609 28.5821 44.5983 28.5178C44.5912 28.4536 44.6019 28.3928 44.6339 28.3428C44.6659 28.2928 44.7158 28.2643 44.7834 28.2643C45.3066 28.2643 45.9117 28.225 46.5986 28.1428C47.2856 28.0643 47.7625 27.9893 48.0295 27.9214C48.1149 27.9 48.1754 27.9214 48.2075 27.9928C48.2395 28.0643 48.243 28.1464 48.211 28.2357C48.1825 28.3321 48.1292 28.3893 48.0473 28.4107ZM47.2215 27.8643C47.0578 27.8857 46.8086 27.8928 46.4776 27.8786C46.1466 27.8643 45.8654 27.8357 45.6305 27.7893C45.538 27.7714 45.4775 27.7178 45.4454 27.625C45.4134 27.5321 45.4241 27.45 45.4703 27.375C45.5202 27.3 45.5949 27.2714 45.6981 27.2893C46.1893 27.3857 46.6947 27.4214 47.218 27.3928C47.3212 27.3857 47.3888 27.4214 47.428 27.4928C47.4636 27.5643 47.46 27.6428 47.4137 27.725C47.371 27.8036 47.3069 27.8536 47.2215 27.8643ZM45.9046 29.7821C45.8761 29.925 45.9153 30.0464 46.0256 30.1428C46.1324 30.2393 46.2961 30.2821 46.5132 30.2714C46.7339 30.2607 46.919 30.2107 47.0685 30.125C47.218 30.0393 47.3034 29.925 47.3319 29.7821C47.3675 29.6321 47.3212 29.5107 47.1966 29.4178C47.072 29.325 46.9012 29.2821 46.6841 29.2928C46.4669 29.3036 46.289 29.3571 46.1502 29.4464C46.0078 29.5393 45.9259 29.6536 45.9046 29.7821ZM49.6383 33.3393C49.2468 33.425 48.389 33.5178 47.0685 33.6214C47.0685 33.6321 47.0827 33.7357 47.1112 33.9286C47.129 34.0357 47.1539 34.1036 47.193 34.1286C47.2286 34.1536 47.3105 34.1714 47.4351 34.175C47.6985 34.1857 48.0936 34.1678 48.6239 34.1178C49.1542 34.0678 49.5707 34.0143 49.8803 33.95C49.9764 33.9321 50.0441 33.9607 50.0868 34.0357C50.1295 34.1107 50.1259 34.1928 50.0868 34.2857C50.0476 34.3786 49.9729 34.4321 49.8661 34.45C49.5244 34.5143 49.0973 34.5643 48.5812 34.6071C48.0651 34.65 47.638 34.6643 47.2963 34.6536C47.0578 34.6464 46.8869 34.6036 46.7873 34.5178C46.6876 34.4321 46.6236 34.2786 46.5951 34.0536C46.588 34.0143 46.5808 33.9464 46.5666 33.8464C46.5524 33.75 46.5417 33.6821 46.5381 33.65H46.4705C46.4029 33.6571 46.3424 33.6321 46.2961 33.5821C46.2463 33.5321 46.2178 33.475 46.2036 33.4143C46.1893 33.3536 46.1964 33.2964 46.2214 33.2428C46.2463 33.1893 46.2925 33.1607 46.353 33.1607C47.1397 33.1321 48.0508 33.05 49.0866 32.9107C49.1364 32.7393 49.1578 32.5678 49.1471 32.3964C48.8908 32.4607 48.5064 32.5178 47.9903 32.575C47.4742 32.6321 47.0293 32.6678 46.652 32.6786C46.5844 32.6786 46.5239 32.6536 46.4741 32.6C46.4242 32.5464 46.3886 32.4928 46.3708 32.4286C46.353 32.3643 46.3566 32.3071 46.3851 32.2536C46.41 32.2 46.4563 32.1714 46.5275 32.1714C46.9724 32.1607 47.4956 32.1178 48.0936 32.0428C48.6951 31.9678 49.1186 31.8964 49.3607 31.8286C49.4568 31.8 49.5458 31.825 49.6205 31.9C49.6988 31.9786 49.7344 32.0571 49.7344 32.1428C49.7273 32.3714 49.6917 32.6036 49.6241 32.8357C49.6312 32.8286 49.6383 32.825 49.6525 32.8214C49.6668 32.8178 49.6775 32.8178 49.681 32.8178C49.7664 32.8 49.8234 32.8321 49.8519 32.9071C49.8803 32.9821 49.8732 33.0678 49.8341 33.1607C49.7842 33.2678 49.7237 33.325 49.6383 33.3393ZM49.1258 31.4714C49.1471 29.9357 49.1471 28.6178 49.1186 27.5214C49.1186 27.4464 49.1471 27.3893 49.2041 27.35C49.261 27.3107 49.3251 27.2893 49.3927 27.2893C49.4603 27.2893 49.5244 27.3107 49.5849 27.3536C49.6454 27.3964 49.6739 27.4536 49.6739 27.5214V29.2536C50.4142 29.175 50.8449 29.125 50.9624 29.1071C51.03 29.1 51.0798 29.125 51.1083 29.175C51.1368 29.225 51.1475 29.2857 51.1368 29.3536C51.1297 29.4214 51.1012 29.4893 51.0585 29.55C51.0158 29.6143 50.9624 29.6464 50.9019 29.6536C50.7203 29.675 50.311 29.7143 49.6703 29.7643V31.325C49.6703 31.4214 49.6241 31.5036 49.5351 31.5678C49.4425 31.6321 49.3536 31.6571 49.261 31.6393C49.172 31.625 49.1258 31.5678 49.1258 31.4714Z" fill="black"/>
<path id="Vector_30" d="M57.9992 31.275C57.3549 31.3428 56.2836 31.4321 54.778 31.5393C53.2759 31.6464 52.2366 31.7107 51.6671 31.7285C51.5746 31.7285 51.507 31.6857 51.4607 31.5964C51.4144 31.5071 51.4037 31.4178 51.4322 31.3321C51.4571 31.2428 51.5141 31.2 51.5995 31.2C52.1619 31.2 53.187 31.15 54.6748 31.0464C54.6854 30.6536 54.6819 30.3 54.6676 29.9928C54.2903 30.0143 54.0554 30.0285 53.9593 30.0357C53.7031 30.0464 53.518 30.0035 53.4076 29.9071C53.2973 29.8107 53.2475 29.65 53.2581 29.4286C53.2688 29.0964 53.2546 28.7535 53.2154 28.4H52.9342C52.8417 28.4 52.7741 28.3571 52.7242 28.2714C52.6744 28.1857 52.6637 28.1 52.6851 28.0178C52.7064 27.9357 52.7634 27.8928 52.8488 27.8928C53.3044 27.8928 53.9095 27.8571 54.6676 27.7857C55.4258 27.7143 55.9525 27.6535 56.248 27.6C56.3405 27.5821 56.401 27.6143 56.4366 27.6893C56.4722 27.7678 56.4722 27.85 56.4366 27.9393C56.401 28.0286 56.3441 28.0821 56.2587 28.0964C55.7354 28.2035 54.9168 28.2964 53.8063 28.3714C53.8241 28.6178 53.8312 28.9107 53.8312 29.2536C53.8312 29.3678 53.8454 29.4393 53.8739 29.4643C53.9024 29.4893 53.9807 29.5036 54.1053 29.5036C54.3686 29.5036 54.7709 29.4786 55.319 29.425C55.8671 29.3714 56.2942 29.3178 56.6003 29.2607C56.7071 29.2428 56.7783 29.275 56.8139 29.3536C56.8495 29.4321 56.8424 29.5214 56.7997 29.6143C56.757 29.7071 56.6929 29.7643 56.6075 29.7821C56.3298 29.8393 55.8671 29.8928 55.2229 29.9464C55.2336 30.4214 55.2371 30.775 55.23 31.0107C56.5505 30.9143 57.4795 30.8214 58.0134 30.7357C58.0988 30.725 58.1558 30.7607 58.1878 30.8464C58.2198 30.9321 58.2163 31.025 58.1736 31.1214C58.1415 31.2178 58.081 31.2678 57.9992 31.275ZM53.6532 33.4857C53.6924 33.1214 53.8526 32.8214 54.1302 32.5928C54.4078 32.3643 54.7495 32.2428 55.1481 32.2321C55.5539 32.2143 55.8742 32.325 56.1163 32.5607C56.3583 32.7964 56.458 33.1036 56.4188 33.4821C56.3797 33.8464 56.2159 34.1464 55.9276 34.3786C55.6393 34.6107 55.3012 34.7321 54.9061 34.7428C54.5146 34.7536 54.1978 34.6393 53.9593 34.4036C53.7209 34.1714 53.6176 33.8643 53.6532 33.4857ZM54.2085 33.4857C54.1871 33.725 54.237 33.9143 54.3651 34.0571C54.4932 34.1964 54.6783 34.2607 54.9168 34.25C55.1731 34.2393 55.3902 34.1678 55.5646 34.0357C55.7426 33.9036 55.8422 33.7214 55.8636 33.4857C55.892 33.25 55.8422 33.0643 55.7176 32.925C55.5931 32.7857 55.3973 32.7178 55.1268 32.725C54.8776 32.7357 54.6641 32.8107 54.4932 32.9535C54.3259 33.0893 54.2298 33.2678 54.2085 33.4857Z" fill="black"/>
<path id="Vector_31" d="M62.6547 29.15C62.4341 29.2 61.9037 29.2714 61.0708 29.3571C60.238 29.4428 59.6186 29.4857 59.2129 29.4857C59.1096 29.4857 59.0349 29.4428 58.9851 29.3607C58.9352 29.2786 58.9281 29.1964 58.9602 29.1107C58.9922 29.025 59.0491 28.9857 59.1346 28.9857C59.5724 28.9857 60.2059 28.95 61.0317 28.875C61.8574 28.8 62.3913 28.7357 62.6298 28.6786C62.7152 28.6607 62.7757 28.6857 62.8149 28.7571C62.8505 28.825 62.8541 28.9036 62.822 28.9928C62.79 29.0786 62.7366 29.1321 62.6547 29.15ZM59.7361 30.8964C59.7752 30.575 59.9247 30.3107 60.1846 30.0964C60.4444 29.8821 60.7541 29.7678 61.1207 29.7571C61.4802 29.7464 61.7685 29.8536 61.9891 30.0786C62.2098 30.3036 62.3024 30.5786 62.2668 30.8964C62.2312 31.2178 62.0817 31.4821 61.8183 31.6928C61.5549 31.9036 61.2346 32.0214 60.8644 32.0428C60.5227 32.0643 60.238 31.9607 60.0137 31.7286C59.7859 31.5036 59.6934 31.225 59.7361 30.8964ZM61.6047 28.4964C61.1029 28.4857 60.5868 28.4036 60.0493 28.2571C59.9568 28.2357 59.9034 28.1786 59.8856 28.0928C59.8678 28.0071 59.8856 27.9286 59.9425 27.8607C59.9959 27.7928 60.0635 27.7678 60.1419 27.7928C60.7327 27.9464 61.231 28.0286 61.6296 28.0428C61.7329 28.05 61.8005 28.0893 61.829 28.1678C61.861 28.2464 61.8503 28.3178 61.8041 28.3893C61.7578 28.4607 61.6902 28.4964 61.6047 28.4964ZM60.2985 30.8964C60.27 31.0964 60.3091 31.2607 60.4124 31.3857C60.5191 31.5107 60.6757 31.5714 60.8857 31.5643C61.1029 31.5536 61.2844 31.4857 61.4374 31.3678C61.5905 31.25 61.6759 31.0893 61.6973 30.8964C61.7257 30.6964 61.683 30.5321 61.5727 30.4071C61.4624 30.2821 61.3022 30.2214 61.0886 30.2286C60.8715 30.2393 60.69 30.3071 60.5476 30.425C60.4052 30.5464 60.3198 30.7036 60.2985 30.8964ZM61.8788 33.5393C61.9073 33.2036 62.0603 32.9214 62.3344 32.6964C62.612 32.4714 62.943 32.3536 63.331 32.3393C63.7225 32.3214 64.0358 32.4286 64.2707 32.6571C64.5056 32.8857 64.6017 33.1786 64.5625 33.5393C64.5269 33.8893 64.3703 34.175 64.0891 34.4C63.808 34.625 63.4769 34.7428 63.0925 34.7464C62.7046 34.7536 62.3985 34.6393 62.1742 34.4107C61.95 34.1821 61.8503 33.8928 61.8788 33.5393ZM63.9041 31.9678V30.9321C63.4947 31.0821 63.0925 31.1607 62.701 31.1714C62.6156 31.1714 62.5444 31.1357 62.4839 31.0643C62.4234 30.9928 62.3985 30.9178 62.4127 30.8428C62.4234 30.7643 62.4768 30.725 62.5657 30.7178C63.0676 30.6893 63.5161 30.6036 63.9147 30.4607V29.8607C63.42 30.0321 62.9964 30.1107 62.6405 30.1C62.5052 30.0928 62.4198 30.0178 62.3842 29.8678C62.3486 29.7178 62.4056 29.6393 62.548 29.6286C62.9964 29.5928 63.452 29.5036 63.9147 29.3536C63.9147 28.8286 63.9076 28.2178 63.8969 27.5178C63.8969 27.4428 63.9254 27.3857 63.9824 27.3464C64.0393 27.3071 64.1034 27.2857 64.171 27.2857C64.2386 27.2857 64.3027 27.3071 64.3632 27.35C64.4237 27.3928 64.4522 27.45 64.4522 27.5178V31.8214C64.4522 31.9178 64.4059 32 64.3169 32.0643C64.2244 32.1286 64.1354 32.1536 64.0429 32.1357C63.9503 32.1178 63.9041 32.0678 63.9041 31.9678ZM62.4163 33.5393C62.3949 33.7607 62.4447 33.9393 62.5693 34.075C62.6939 34.2107 62.8719 34.2714 63.0996 34.2607C63.3452 34.25 63.5552 34.1786 63.7261 34.05C63.9005 33.9214 63.9966 33.75 64.0215 33.5393C64.05 33.3178 64.0037 33.1393 63.8791 33.0071C63.7581 32.875 63.5659 32.8143 63.3096 32.8178C63.0605 32.825 62.8541 32.8928 62.6939 33.0286C62.5337 33.1643 62.4447 33.3321 62.4163 33.5393Z" fill="black"/>
<path id="Vector_32" d="M72.0941 33.3571C71.5068 33.4214 70.4852 33.4964 69.0259 33.5857C67.5666 33.675 66.538 33.725 65.9329 33.7357C65.8403 33.7357 65.7727 33.6928 65.7264 33.6035C65.6802 33.5142 65.6695 33.425 65.698 33.3392C65.7229 33.25 65.7798 33.2071 65.8652 33.2071C66.5486 33.2071 67.6164 33.1642 69.0686 33.0785C70.5208 32.9928 71.5352 32.9071 72.1083 32.8214C72.1937 32.8107 72.2507 32.8464 72.2827 32.9321C72.3147 33.0178 72.3112 33.1107 72.2685 33.2071C72.2364 33.3 72.1759 33.3535 72.0941 33.3571ZM71.0441 31.4464C70.6952 31.5107 70.0332 31.5821 69.0508 31.6607C68.0685 31.7392 67.3174 31.7857 66.8013 31.7964C66.6874 31.7964 66.602 31.7535 66.5451 31.6642C66.4881 31.575 66.4739 31.4857 66.4988 31.3928C66.5237 31.3 66.5807 31.2571 66.6661 31.2571C67.0647 31.2571 67.531 31.2392 68.0685 31.2071C67.9047 30.7035 67.7908 30.1178 67.7268 29.45C67.7197 29.3642 67.7446 29.2928 67.7944 29.2321C67.8442 29.1714 67.9047 29.1357 67.9724 29.125C68.04 29.1142 68.1041 29.125 68.1646 29.1607C68.2251 29.1964 68.2571 29.2464 68.2642 29.3142C68.2927 29.9214 68.4137 30.5357 68.6237 31.1642C68.6913 31.1571 68.791 31.15 68.9227 31.1428C69.0544 31.1357 69.1541 31.1285 69.2217 31.1214C69.3925 30.55 69.4815 29.8785 69.4851 29.1071C69.4851 29.0107 69.5313 28.95 69.6274 28.9285C69.7235 28.9071 69.8125 28.9214 69.9051 28.9785C69.9976 29.0357 70.0403 29.1142 70.0403 29.2107C70.0225 29.8607 69.93 30.4821 69.7591 31.0714C70.35 31.0214 70.7913 30.9642 71.0832 30.9071C71.1686 30.8892 71.2256 30.925 71.2541 31.0107C71.2825 31.0964 71.2754 31.1892 71.2327 31.2857C71.1864 31.3821 71.1259 31.4357 71.0441 31.4464ZM70.5671 28.5571C70.1791 28.6214 69.6061 28.6857 68.8444 28.75C68.0827 28.8142 67.4919 28.85 67.0647 28.85C66.9722 28.85 66.9046 28.8071 66.8547 28.7178C66.8049 28.6285 66.7942 28.5392 66.8156 28.4535C66.8369 28.3642 66.8939 28.3214 66.9793 28.3214C67.4456 28.3321 68.0685 28.3035 68.8408 28.2357C69.6168 28.1678 70.1969 28.0964 70.5849 28.0214C70.6703 28.0035 70.7273 28.0392 70.7593 28.125C70.7913 28.2107 70.7878 28.3035 70.7451 28.4C70.7059 28.4928 70.6454 28.5464 70.5671 28.5571Z" fill="black"/>
<path id="Vector_33" d="M77.7925 29.8535C77.6146 29.9 77.2551 29.9607 76.7069 30.0321C76.1588 30.1071 75.6391 30.1607 75.1444 30.1964C75.1444 30.275 75.148 30.4142 75.1586 30.6107C75.1658 30.8071 75.1729 30.9321 75.1729 30.9821C75.1729 31.0964 75.1942 31.175 75.2369 31.2178C75.2797 31.2607 75.3615 31.2785 75.479 31.275C75.7922 31.2642 76.2015 31.2285 76.7105 31.1678C77.2159 31.1071 77.6537 31.0357 78.0168 30.95C78.1129 30.9285 78.1805 30.9535 78.2232 31.0321C78.2624 31.1107 78.2624 31.1964 78.2232 31.2892C78.1841 31.3821 78.1164 31.4428 78.0168 31.4642C77.6466 31.55 77.1519 31.6285 76.529 31.6964C76.5397 32.175 76.5397 32.6607 76.529 33.1535C78.0097 33.0571 78.9849 32.975 79.4583 32.9035C79.5437 32.8928 79.6007 32.9285 79.6327 33.0142C79.6647 33.1 79.6612 33.1928 79.6185 33.2892C79.5793 33.3857 79.5188 33.4392 79.4405 33.4428C78.8639 33.5 77.821 33.575 76.3047 33.6642C74.7885 33.7571 73.7242 33.8071 73.1085 33.8178C73.0159 33.8178 72.9483 33.775 72.902 33.6857C72.8558 33.5964 72.8451 33.5071 72.8736 33.4214C72.8985 33.3321 72.9554 33.2892 73.0408 33.2892C73.6281 33.2892 74.6034 33.2535 75.9702 33.1857C75.9808 32.8607 75.9808 32.3785 75.9702 31.7464C75.7495 31.7678 75.5324 31.7821 75.3224 31.7821C75.0839 31.7892 74.9095 31.7392 74.7956 31.6357C74.6817 31.5321 74.6247 31.3714 74.6212 31.1464C74.6105 30.7107 74.5963 30.4035 74.5785 30.2214H74.3898C74.2973 30.2214 74.2261 30.1785 74.1727 30.0964C74.1193 30.0142 74.1051 29.9321 74.13 29.8464C74.1549 29.7642 74.2154 29.7214 74.3151 29.7214C75.1693 29.7 76.0734 29.6214 77.0308 29.4892C77.1056 29.175 77.1519 28.8678 77.1661 28.5714C76.8885 28.6357 76.4934 28.6928 75.9844 28.7464C75.4754 28.8 75.0447 28.8285 74.6888 28.8285C74.5464 28.8285 74.4646 28.7428 74.4468 28.5714C74.429 28.4 74.4895 28.3142 74.6319 28.3142C75.0483 28.3142 75.5395 28.2785 76.109 28.2107C76.6785 28.1428 77.1127 28.075 77.4081 28.0142C77.5149 27.9928 77.6075 28.0107 77.6822 28.075C77.7569 28.1392 77.789 28.225 77.7854 28.3392C77.7498 28.7392 77.6929 29.0892 77.6146 29.3928C77.643 29.3857 77.6786 29.3785 77.7178 29.3714C77.7569 29.3642 77.7819 29.3571 77.7961 29.3571C77.8886 29.3392 77.9491 29.3678 77.9847 29.4392C78.0203 29.5107 78.0168 29.5892 77.9812 29.6785C77.9385 29.775 77.878 29.8285 77.7925 29.8535Z" fill="black"/>
<path id="Vector_34" d="M86.6161 33.1857C86.0288 33.25 85.0073 33.325 83.548 33.4143C82.0886 33.5036 81.06 33.5536 80.4549 33.5643C80.3624 33.5643 80.2947 33.5214 80.2485 33.4321C80.2022 33.3428 80.1915 33.2536 80.22 33.1678C80.2449 33.0786 80.3019 33.0357 80.3873 33.0357C81.0707 33.0357 82.1385 32.9928 83.5907 32.9071C85.0429 32.8214 86.0573 32.7357 86.6303 32.65C86.7158 32.6393 86.7727 32.675 86.8047 32.7607C86.8368 32.8464 86.8332 32.9393 86.7905 33.0357C86.7585 33.1286 86.698 33.1821 86.6161 33.1857ZM84.4805 31.7036C84.4342 31.8071 84.3595 31.8714 84.2527 31.9C84.1459 31.9286 84.0569 31.9178 83.9822 31.8643C83.9074 31.8143 83.8896 31.7357 83.9324 31.6321C84.0641 31.3071 84.178 30.8607 84.2776 30.3C84.3773 29.7357 84.4235 29.25 84.42 28.8393C84.1068 28.9428 83.7188 29.025 83.2597 29.0928C82.7969 29.1571 82.3912 29.1857 82.0388 29.175C81.9356 29.175 81.8608 29.1321 81.8074 29.0428C81.7576 28.9536 81.7469 28.8643 81.779 28.7786C81.811 28.6893 81.8786 28.6464 81.9783 28.6464C82.7471 28.6464 83.4946 28.5393 84.2242 28.3286C84.4449 28.2643 84.63 28.2714 84.7759 28.3428C84.9219 28.4143 84.993 28.5536 84.993 28.7571C84.993 29.225 84.9432 29.75 84.8435 30.3286C84.7439 30.9071 84.6229 31.3678 84.4805 31.7036Z" fill="black"/>
<path id="Vector_35" d="M90.033 29.8178C89.6842 29.9535 89.1681 30.0607 88.4776 30.1357C88.4847 30.25 88.4847 30.4357 88.4847 30.6928C88.4776 30.8 88.499 30.875 88.5488 30.9142C88.5986 30.9535 88.6805 30.9678 88.8015 30.9571C89.4066 30.8892 89.9547 30.7785 90.4495 30.6214C90.5527 30.5857 90.6274 30.6071 90.6701 30.6821C90.7164 30.7571 90.7235 30.8428 90.6915 30.9392C90.6595 31.0357 90.599 31.1035 90.5064 31.1357C90.3178 31.2035 90.0295 31.275 89.6344 31.35C89.2393 31.425 88.894 31.4714 88.5915 31.4857C88.1466 31.5142 87.933 31.3107 87.9508 30.8785C87.9615 30.5535 87.9579 30.3178 87.933 30.175H87.7373C87.6696 30.175 87.6091 30.15 87.5593 30.1035C87.5095 30.0535 87.4774 30 87.4667 29.9392C87.4561 29.8785 87.4632 29.825 87.4917 29.7714C87.5201 29.7178 87.57 29.6928 87.6376 29.6857C88.2534 29.6571 88.83 29.5892 89.371 29.4785C89.4635 29.1571 89.5027 28.8821 89.492 28.6464C89.0008 28.7714 88.4954 28.85 87.9722 28.8785C87.8796 28.8857 87.8049 28.8464 87.7444 28.7678C87.6839 28.6892 87.6625 28.6035 87.6803 28.5178C87.6981 28.4321 87.7515 28.3857 87.844 28.3821C88.4883 28.3428 89.104 28.2392 89.6984 28.075C89.8052 28.0464 89.8978 28.0678 89.969 28.1392C90.0401 28.2107 90.0793 28.3071 90.0828 28.425C90.09 28.6642 90.0401 28.9678 89.9369 29.3321C89.9476 29.325 89.9654 29.3214 89.9832 29.3142C90.0045 29.3071 90.0152 29.3071 90.0223 29.3071C90.1149 29.2785 90.1754 29.3 90.211 29.3714C90.2466 29.4428 90.2466 29.525 90.211 29.6214C90.179 29.7178 90.1184 29.7821 90.033 29.8178ZM90.3427 34.5821H90.2928C90.2537 34.6392 90.1967 34.6785 90.122 34.6964C90.0473 34.7178 89.9796 34.7071 89.9156 34.6714C89.8515 34.6357 89.823 34.575 89.823 34.4964C89.8017 33.6892 89.7162 33 89.5739 32.4214C89.5525 32.3285 89.581 32.2571 89.6664 32.2C89.7518 32.1428 89.8444 32.1214 89.944 32.1392C90.0437 32.1571 90.1042 32.2142 90.1291 32.3107V32.3285H90.1362C90.8267 32.1357 91.5884 32.025 92.4249 32.0035C92.642 31.9964 92.7986 32.0464 92.8947 32.1464C92.9908 32.2464 93.0371 32.425 93.03 32.6821C93.0122 33.2428 92.9801 33.6535 92.9267 33.9178H92.9944C93.1296 33.925 93.1866 34.0071 93.1581 34.1678C93.1296 34.3285 93.0513 34.4107 92.9196 34.4178C92.012 34.4357 91.1506 34.4928 90.3427 34.5821ZM90.2145 32.825C90.2786 33.2035 90.3178 33.625 90.3356 34.0928C90.7912 34.0357 91.4817 33.9821 92.4035 33.9285C92.4534 33.4821 92.4783 33.1035 92.4711 32.7892C92.464 32.6821 92.4427 32.6107 92.4035 32.575C92.3644 32.5392 92.2825 32.5285 92.1544 32.5392C91.5849 32.5785 90.9798 32.6714 90.3356 32.8142C90.3035 32.825 90.2644 32.825 90.2145 32.825ZM91.051 31.4821C91.0617 29.7321 91.0581 28.5 91.0439 27.7785C91.0439 27.7035 91.0723 27.6464 91.1293 27.6071C91.1862 27.5678 91.2503 27.5464 91.3179 27.5464C91.3856 27.5464 91.4496 27.5678 91.5101 27.6107C91.5706 27.6535 91.5991 27.7107 91.5991 27.7785V29.2535C91.8945 29.225 92.1757 29.1714 92.4462 29.0892C92.4462 28.7071 92.4391 28.1821 92.4284 27.5214C92.4284 27.4464 92.4569 27.3892 92.5139 27.35C92.5708 27.3107 92.6349 27.2892 92.7025 27.2892C92.7701 27.2892 92.8342 27.3107 92.8947 27.3535C92.9552 27.3964 92.9837 27.4535 92.9837 27.5214V31.3714C92.9837 31.4678 92.9374 31.55 92.8484 31.6142C92.7559 31.6785 92.6669 31.7035 92.5744 31.6857C92.4818 31.6678 92.4391 31.6107 92.4391 31.5142C92.4391 31.3428 92.4391 31.0428 92.4427 30.6142C92.4462 30.1857 92.4462 29.85 92.4462 29.6035C92.1829 29.6964 91.9017 29.7535 91.5991 29.7821V31.3321C91.5991 31.4285 91.5528 31.5107 91.4639 31.575C91.3713 31.6392 91.2823 31.6642 91.1898 31.6464C91.0973 31.6285 91.051 31.5785 91.051 31.4821Z" fill="black"/>
<path id="Vector_36" d="M97.262 28.6428C97.8991 28.6142 98.6573 28.5142 99.5329 28.3428C99.6574 28.3214 99.7571 28.3571 99.8318 28.4571C99.9066 28.5571 99.9244 28.6678 99.8923 28.7857C99.7962 29.1392 99.5364 29.5892 99.1164 30.1321C99.7073 30.5607 100.131 30.8892 100.38 31.1178C100.505 31.2321 100.533 31.375 100.462 31.5428C100.391 31.7107 100.287 31.7321 100.149 31.6071C99.6147 31.1571 99.1591 30.7964 98.7889 30.5285C98.2586 31.1178 97.7389 31.5428 97.2264 31.8071C97.1054 31.8714 97.0057 31.8964 96.9203 31.8857C96.8349 31.875 96.7708 31.85 96.7245 31.8071C96.6783 31.7678 96.6569 31.7178 96.6605 31.6571C96.664 31.5964 96.6925 31.55 96.7495 31.5142C97.3866 31.1357 97.924 30.7071 98.3547 30.2214C98.7889 29.7357 99.0737 29.3 99.2161 28.9178C98.5505 29.0607 97.9383 29.1428 97.3795 29.1678C97.2727 29.175 97.1908 29.1321 97.1374 29.0464C97.084 28.9607 97.0662 28.8714 97.0912 28.7821C97.1125 28.6892 97.1695 28.6428 97.262 28.6428ZM99.2018 32.4321C99.2979 32.7964 99.3478 33.2428 99.3478 33.7678C99.3478 33.8821 99.362 33.9571 99.394 33.9964C99.4261 34.0321 99.5008 34.0535 99.6218 34.0535C99.782 34.0535 100.01 34.0428 100.309 34.025C100.608 34.0035 100.942 33.9785 101.309 33.9464C101.676 33.9142 101.921 33.8928 102.049 33.8821C102.163 33.875 102.241 33.9107 102.281 33.9892C102.32 34.0678 102.316 34.15 102.274 34.2392C102.227 34.3285 102.156 34.375 102.06 34.3821C100.672 34.4857 99.8105 34.5392 99.4795 34.5464C99.031 34.5535 98.8032 34.3285 98.8032 33.8785C98.8032 33.45 98.7534 33.0214 98.6573 32.5928C98.6288 32.4714 98.6573 32.3821 98.7391 32.3178C98.821 32.2535 98.9135 32.2357 99.0167 32.2607C99.1128 32.2821 99.1769 32.3392 99.2018 32.4321ZM101.498 32.4571C101.498 32.1607 101.498 31.7178 101.501 31.1321C101.505 30.5464 101.505 30.1071 101.505 29.8178C100.953 29.9785 100.515 30.0642 100.188 30.075C100.102 30.075 100.031 30.0392 99.9742 29.9642C99.9173 29.8892 99.8959 29.8107 99.9066 29.7285C99.9173 29.6464 99.9706 29.6 100.06 29.5964C100.526 29.55 101.006 29.45 101.505 29.2964L101.48 27.5214C101.48 27.4464 101.508 27.3892 101.565 27.35C101.622 27.3107 101.686 27.2892 101.754 27.2892C101.821 27.2892 101.886 27.3107 101.946 27.3535C102.007 27.3964 102.035 27.4535 102.035 27.5214C102.053 28.95 102.056 30.5464 102.042 32.3142C102.042 32.4107 101.996 32.4928 101.907 32.5571C101.814 32.6214 101.725 32.6464 101.633 32.6285C101.544 32.6107 101.498 32.5535 101.498 32.4571Z" fill="black"/>
<path id="Vector_37" d="M109.851 31.3535C109.339 31.4035 108.474 31.4785 107.257 31.575C107.274 31.9857 107.274 32.4607 107.264 32.9964C107.264 33.0928 107.217 33.175 107.128 33.2464C107.036 33.3143 106.947 33.3428 106.858 33.3285C106.769 33.3143 106.73 33.2571 106.733 33.1607C106.744 32.6571 106.737 32.1428 106.708 31.6178C105.246 31.725 104.181 31.7893 103.523 31.8071C103.43 31.8071 103.363 31.7643 103.316 31.675C103.27 31.5857 103.259 31.4964 103.288 31.4107C103.313 31.3214 103.37 31.2785 103.455 31.2785C104.092 31.2785 105.171 31.225 106.684 31.1143C108.2 31.0071 109.26 30.9071 109.869 30.8143C109.955 30.8035 110.011 30.8393 110.044 30.925C110.076 31.0107 110.068 31.1035 110.029 31.2C109.994 31.2964 109.933 31.3464 109.851 31.3535ZM105.829 30.35C105.744 30.3607 105.68 30.3357 105.634 30.2714C105.584 30.4071 105.488 30.4785 105.352 30.4857C105.217 30.4928 105.146 30.4214 105.139 30.2714C105.117 29.5071 105.032 28.8214 104.89 28.2214C104.868 28.125 104.897 28.0464 104.979 27.9893C105.06 27.9321 105.153 27.9143 105.256 27.9321C105.359 27.95 105.42 28.0107 105.445 28.1071C105.445 28.125 105.448 28.1357 105.452 28.1428C105.47 28.0964 105.513 28.0643 105.58 28.0393C105.844 27.9607 106.249 27.8857 106.797 27.8214C107.346 27.7571 107.744 27.7285 107.99 27.7393C108.218 27.7464 108.374 27.8035 108.456 27.9143C108.538 28.025 108.574 28.2 108.563 28.4428C108.545 28.8893 108.492 29.2785 108.399 29.6178C108.534 29.6357 108.591 29.7214 108.57 29.8785C108.549 30.0357 108.474 30.1143 108.346 30.1143C107.637 30.1357 106.797 30.2107 105.829 30.35ZM105.726 32.6214C105.765 32.8428 105.794 33.225 105.811 33.7607C105.819 33.875 105.836 33.95 105.872 33.9821C105.908 34.0178 105.986 34.0357 106.11 34.0428C106.587 34.0714 107.477 34.0071 108.776 33.8464C108.869 33.8357 108.933 33.8678 108.969 33.95C109.008 34.0285 109.004 34.1143 108.965 34.2C108.926 34.2857 108.862 34.3357 108.776 34.3464C108.424 34.3928 107.951 34.4357 107.36 34.4785C106.769 34.5214 106.303 34.5393 105.968 34.5357C105.73 34.5285 105.555 34.4714 105.448 34.3643C105.342 34.2571 105.281 34.0893 105.27 33.8678C105.253 33.375 105.217 32.9893 105.16 32.7107C105.139 32.5964 105.171 32.5143 105.26 32.4607C105.349 32.4107 105.445 32.4 105.552 32.4357C105.658 32.4714 105.708 32.5285 105.726 32.6214ZM105.513 28.4821C105.58 28.875 105.623 29.3428 105.641 29.8785C105.648 29.8714 105.655 29.8678 105.669 29.8643C105.683 29.8607 105.694 29.8607 105.698 29.8607C106.171 29.7678 106.89 29.6928 107.858 29.6285C107.961 29.1893 108.004 28.8178 107.986 28.5143C107.979 28.4071 107.954 28.3357 107.904 28.3071C107.855 28.2785 107.776 28.2643 107.669 28.2643C107.146 28.2643 106.481 28.3571 105.68 28.5393C105.616 28.5571 105.559 28.5393 105.513 28.4821Z" fill="black"/>
<path id="Vector_38" d="M117.223 29.0464C116.995 29.0964 116.44 29.1678 115.553 29.2607C114.667 29.3535 114.016 29.3964 113.592 29.3964C113.5 29.3964 113.436 29.3535 113.393 29.2714C113.35 29.1892 113.343 29.1071 113.375 29.0214C113.407 28.9357 113.464 28.8964 113.549 28.8964C113.987 28.8964 114.642 28.8571 115.511 28.7821C116.379 28.7035 116.934 28.6392 117.173 28.5821C117.258 28.5642 117.322 28.5892 117.365 28.6607C117.408 28.7321 117.415 28.8071 117.386 28.8928C117.358 28.9785 117.305 29.0285 117.223 29.0464ZM114.147 30.8107C114.187 30.4892 114.34 30.2214 114.603 30C114.866 29.7785 115.194 29.6642 115.582 29.6535C115.959 29.6428 116.258 29.75 116.486 29.9785C116.714 30.2071 116.81 30.4857 116.778 30.8107C116.742 31.1321 116.586 31.4035 116.304 31.625C116.023 31.8464 115.696 31.9642 115.326 31.975C114.955 31.9857 114.656 31.8785 114.429 31.65C114.204 31.425 114.108 31.1428 114.147 30.8107ZM116.173 28.4392C115.82 28.4285 115.265 28.3392 114.507 28.175C114.422 28.1571 114.368 28.1071 114.35 28.0214C114.329 27.9357 114.347 27.8571 114.4 27.7857C114.454 27.7142 114.521 27.6892 114.599 27.7142C115.262 27.8857 115.792 27.9785 116.198 27.9892C116.301 27.9964 116.368 28.0357 116.397 28.1142C116.429 28.1928 116.418 28.2642 116.372 28.3357C116.326 28.4071 116.258 28.4392 116.173 28.4392ZM114.713 30.8107C114.685 31.0214 114.728 31.1892 114.842 31.3107C114.955 31.4321 115.126 31.4928 115.354 31.4857C115.589 31.475 115.781 31.4107 115.938 31.2928C116.094 31.175 116.187 31.0142 116.215 30.8071C116.244 30.6 116.198 30.4357 116.08 30.3107C115.959 30.1857 115.785 30.125 115.561 30.1321C115.326 30.1428 115.133 30.2071 114.984 30.325C114.831 30.4464 114.742 30.6071 114.713 30.8107ZM118.034 34.5392C118.12 33.9392 118.155 33.3392 118.145 32.7392C117.881 32.825 117.461 32.9071 116.877 32.9892C116.294 33.0678 115.859 33.1142 115.575 33.125C115.432 33.1321 115.34 33.0464 115.297 32.875C115.254 32.7035 115.301 32.6107 115.439 32.6C116.529 32.5214 117.426 32.3857 118.13 32.1964C118.294 32.15 118.433 32.1714 118.54 32.2607C118.646 32.35 118.703 32.475 118.703 32.6321C118.71 33.1285 118.668 33.7607 118.575 34.525C118.565 34.6285 118.511 34.7035 118.412 34.7535C118.315 34.8035 118.223 34.8071 118.137 34.7714C118.052 34.7392 118.02 34.6607 118.034 34.5392ZM118.148 31.8321C118.148 29.1678 118.145 27.7321 118.141 27.5214C118.141 27.4464 118.169 27.3892 118.226 27.35C118.283 27.3107 118.347 27.2892 118.415 27.2892C118.483 27.2892 118.547 27.3107 118.607 27.3535C118.668 27.3964 118.696 27.4535 118.696 27.5214V29.4142C119.437 29.3357 119.867 29.2857 119.985 29.2678C120.052 29.2607 120.102 29.2857 120.131 29.3357C120.159 29.3857 120.17 29.4464 120.159 29.5142C120.152 29.5821 120.124 29.65 120.081 29.7107C120.038 29.775 119.985 29.8071 119.924 29.8142C119.828 29.825 119.632 29.8428 119.333 29.8714C119.038 29.8964 118.824 29.9142 118.693 29.9285V31.6857C118.693 31.7821 118.646 31.8642 118.557 31.9285C118.465 31.9928 118.376 32.0178 118.283 32C118.191 31.9857 118.148 31.9285 118.148 31.8321Z" fill="black"/>
<path id="Vector_39" d="M127.021 30.9143C126.377 30.9821 125.306 31.0714 123.8 31.1786C122.298 31.2857 121.259 31.35 120.689 31.3678C120.597 31.3678 120.529 31.325 120.483 31.2357C120.437 31.1464 120.426 31.0571 120.455 30.9714C120.483 30.8857 120.536 30.8393 120.622 30.8393C121.259 30.8393 122.337 30.7857 123.85 30.675C125.366 30.5678 126.427 30.4678 127.036 30.375C127.121 30.3643 127.178 30.4 127.21 30.4857C127.242 30.5714 127.239 30.6643 127.196 30.7607C127.16 30.8571 127.103 30.9107 127.021 30.9143ZM121.779 29.9393C122.213 29.6428 122.615 29.2821 122.989 28.8607C123.363 28.4393 123.647 28.0071 123.847 27.5678C123.911 27.425 124.017 27.3893 124.167 27.4607C124.316 27.5321 124.366 27.6428 124.309 27.7893C124.235 27.9786 124.131 28.175 124.003 28.3821C124.836 28.7928 125.434 29.1321 125.804 29.3928C125.897 29.4571 125.943 29.5393 125.95 29.6464C125.957 29.7536 125.925 29.825 125.861 29.8678C125.797 29.9107 125.719 29.9107 125.626 29.8643C125.164 29.5571 124.53 29.1928 123.722 28.775C123.487 29.0786 123.231 29.3643 122.95 29.6357C122.668 29.9071 122.419 30.1071 122.202 30.2393C122.081 30.3071 121.971 30.325 121.868 30.2964C121.764 30.2678 121.711 30.2107 121.7 30.1393C121.686 30.0607 121.715 29.9964 121.779 29.9393ZM122.505 34.1643C122.469 33.2571 122.394 32.5428 122.273 32.0214C122.252 31.9143 122.28 31.8286 122.366 31.7678C122.451 31.7071 122.547 31.6893 122.651 31.7107C122.757 31.7321 122.821 31.7893 122.843 31.8821C122.882 32.0464 122.921 32.3357 122.964 32.7464C123.683 32.6214 124.43 32.5393 125.21 32.4964C125.22 32.0607 125.228 31.7964 125.228 31.7C125.228 31.625 125.256 31.5678 125.313 31.525C125.37 31.4821 125.434 31.4607 125.505 31.4607C125.576 31.4607 125.64 31.4821 125.697 31.525C125.754 31.5678 125.783 31.625 125.783 31.6928C125.783 32.6143 125.729 33.4821 125.619 34.3C125.598 34.4357 125.505 34.5214 125.349 34.55C125.192 34.5786 125.099 34.5393 125.071 34.4286C124.32 34.4786 123.64 34.5393 123.039 34.6071C122.85 34.6286 122.715 34.6036 122.633 34.525C122.555 34.45 122.508 34.3286 122.505 34.1643ZM123.024 33.2464H122.999C123.01 33.3607 123.021 33.525 123.035 33.7393C123.046 33.9536 123.053 34.075 123.053 34.1036C123.519 34.0464 124.213 33.9857 125.128 33.925C125.146 33.7428 125.164 33.4357 125.188 33.0071C124.491 33.0357 123.772 33.1143 123.024 33.2464Z" fill="black"/>
<path id="Vector_40" d="M128.559 29.0893C129.339 29.0536 130.161 28.95 131.029 28.7714C131.15 28.75 131.239 28.7964 131.303 28.9143C131.367 29.0321 131.382 29.1393 131.346 29.2357C131.182 29.7036 130.883 30.1928 130.456 30.7C131.118 31.1786 131.631 31.5678 131.994 31.8643C132.115 31.9678 132.126 32.0964 132.029 32.25C131.933 32.4036 131.823 32.4286 131.695 32.3178C131.165 31.8714 130.645 31.4536 130.132 31.0678C129.556 31.675 128.972 32.1178 128.374 32.4036C128.232 32.4714 128.107 32.4893 128.004 32.45C127.901 32.4107 127.847 32.3571 127.847 32.2786C127.847 32.2 127.879 32.1393 127.94 32.0928C128.623 31.7107 129.211 31.2643 129.705 30.75C130.196 30.2393 130.517 29.775 130.659 29.3571C129.908 29.4786 129.267 29.5571 128.737 29.5964C128.652 29.6036 128.581 29.5786 128.524 29.5286C128.467 29.4786 128.431 29.4178 128.417 29.3536C128.403 29.2893 128.41 29.225 128.435 29.1678C128.452 29.1178 128.499 29.0893 128.559 29.0893ZM133.012 34.625C133.047 31.4643 133.044 29.0964 133.005 27.5178C133.005 27.4428 133.033 27.3857 133.09 27.3464C133.147 27.3071 133.211 27.2857 133.282 27.2857C133.354 27.2857 133.418 27.3071 133.478 27.35C133.539 27.3928 133.567 27.45 133.567 27.5178C133.574 29.8393 133.574 32.1571 133.567 34.4786C133.567 34.575 133.521 34.6571 133.432 34.7214C133.343 34.7857 133.247 34.8107 133.154 34.7928C133.058 34.7821 133.012 34.725 133.012 34.625Z" fill="black"/>
</g>
</g>
<defs>
<clipPath id="clip0_243_51">
<rect width="189" height="85" fill="white"/>
</clipPath>
</defs>
</svg>
